Alegreya Sans-Light.ufo
<glyph name="plus" format="1">
  <advance width="480"/>
  <unicode hex="002B"/>
  <outline>
    <contour>
      <point x="221" y="469" type="line"/>
      <point x="221" y="287" type="line"/>
      <point x="38" y="287" type="line"/>
      <point x="35" y="252" type="line"/>
      <point x="39" y="248" type="line"/>
      <point x="221" y="248" type="line"/>
      <point x="221" y="67" type="line"/>
      <point x="226" y="62" type="line"/>
      <point x="260" y="65" type="line"/>
      <point x="260" y="248" type="line"/>
      <point x="442" y="248" type="line"/>
      <point x="446" y="282" type="line"/>
      <point x="441" y="287" type="line"/>
      <point x="260" y="287" type="line"/>
      <point x="260" y="468" type="line"/>
      <point x="255" y="473" type="line"/>
    </contour>
  </outline>
</glyph>
<glyph name="slash" format="1">
  <advance width="289"/>
  <unicode hex="002F"/>
  <outline>
    <contour>
      <point x="238" y="676" type="line"/>
      <point x="34" y="-106" type="line"/>
      <point x="38" y="-111" type="line"/>
      <point x="75" y="-111" type="line"/>
      <point x="280" y="670" type="line"/>
      <point x="275" y="676" type="line"/>
    </contour>
  </outline>
</glyph>
<glyph name="zero" format="1">
  <advance width="531"/>
  <unicode hex="0030"/>
  <outline>
    <contour>
      <point x="129" y="500"/>
      <point x="51" y="407"/>
      <point x="51" y="241" type="curve" smooth="yes"/>
      <point x="51" y="83"/>
      <point x="127" y="-5"/>
      <point x="263" y="-5" type="curve" smooth="yes"/>
      <point x="403" y="-5"/>
      <point x="481" y="85"/>
      <point x="481" y="248" type="curve" smooth="yes"/>
      <point x="481" y="410"/>
      <point x="405" y="500"/>
      <point x="270" y="500" type="curve" smooth="yes"/>
    </contour>
    <contour>
      <point x="377" y="452"/>
      <point x="438" y="379"/>
      <point x="438" y="242" type="curve" smooth="yes"/>
      <point x="438" y="111"/>
      <point x="378" y="41"/>
      <point x="266" y="41" type="curve" smooth="yes"/>
      <point x="153" y="41"/>
      <point x="93" y="112"/>
      <point x="93" y="245" type="curve" smooth="yes"/>
      <point x="93" y="380"/>
      <point x="153" y="452"/>
      <point x="265" y="452" type="curve" smooth="yes"/>
    </contour>
  </outline>
</glyph>
<glyph name="one" format="1">
  <advance width="337"/>
  <unicode hex="0031"/>
  <outline>
    <contour>
      <point x="13" y="441" type="line"/>
      <point x="13" y="400" type="line"/>
      <point x="19" y="396" type="line"/>
      <point x="156" y="437" type="line"/>
      <point x="157" y="199" type="line"/>
      <point x="154" y="0" type="line"/>
      <point x="206" y="0" type="line"/>
      <point x="204" y="206" type="line"/>
      <point x="207" y="491" type="line"/>
      <point x="198" y="498" type="line"/>
    </contour>
  </outline>
</glyph>
<glyph name="two" format="1">
  <advance width="448"/>
  <unicode hex="0032"/>
  <outline>
    <contour>
      <point x="162" y="497"/>
      <point x="104" y="467"/>
      <point x="60" y="420" type="curve"/>
      <point x="69" y="380" type="line"/>
      <point x="76" y="380" type="line"/>
      <point x="114" y="425"/>
      <point x="164" y="452"/>
      <point x="214" y="452" type="curve" smooth="yes"/>
      <point x="270" y="452"/>
      <point x="300" y="420"/>
      <point x="300" y="381" type="curve" smooth="yes"/>
      <point x="300" y="335"/>
      <point x="261" y="278"/>
      <point x="191" y="196" type="curve" smooth="yes"/>
      <point x="51" y="35" type="line"/>
      <point x="51" y="1" type="line"/>
      <point x="54" y="-1" type="line"/>
      <point x="92" y="0" type="line"/>
      <point x="315" y="0" type="line"/>
      <point x="408" y="-2" type="line"/>
      <point x="415" y="41" type="line"/>
      <point x="411" y="46" type="line"/>
      <point x="330" y="42" type="line"/>
      <point x="121" y="42" type="line"/>
      <point x="119" y="46" type="line"/>
      <point x="231" y="178" type="line" smooth="yes"/>
      <point x="310" y="271"/>
      <point x="350" y="337"/>
      <point x="350" y="392" type="curve" smooth="yes"/>
      <point x="350" y="454"/>
      <point x="297" y="497"/>
      <point x="224" y="497" type="curve" smooth="yes"/>
    </contour>
  </outline>
</glyph>
<glyph name="greater" format="1">
  <advance width="480"/>
  <unicode hex="003E"/>
  <outline>
    <contour>
      <point x="40" y="428" type="line"/>
      <point x="43" y="422" type="line"/>
      <point x="398" y="271" type="line"/>
      <point x="398" y="266" type="line"/>
      <point x="40" y="124" type="line"/>
      <point x="50" y="92" type="line"/>
      <point x="56" y="88" type="line"/>
      <point x="442" y="244" type="line"/>
      <point x="442" y="289" type="line"/>
      <point x="437" y="296" type="line"/>
      <point x="53" y="459" type="line"/>
    </contour>
  </outline>
</glyph>
<glyph name="B" format="1">
  <advance width="516"/>
  <unicode hex="0042"/>
  <outline>
    <contour>
      <point x="101" y="639" type="line"/>
      <point x="125" y="595" type="line"/>
      <point x="167" y="596"/>
      <point x="210" y="596"/>
      <point x="248" y="596" type="curve" smooth="yes"/>
      <point x="332" y="596"/>
      <point x="376" y="557"/>
      <point x="376" y="484" type="curve" smooth="yes"/>
      <point x="376" y="409"/>
      <point x="339" y="364"/>
      <point x="271" y="350" type="curve"/>
      <point x="122" y="353" type="line"/>
      <point x="122" y="306" type="line"/>
      <point x="282" y="307" type="line"/>
      <point x="372" y="298"/>
      <point x="421" y="255"/>
      <point x="421" y="180" type="curve" smooth="yes"/>
      <point x="421" y="91"/>
      <point x="353" y="41"/>
      <point x="232" y="41" type="curve" smooth="yes"/>
      <point x="200" y="41"/>
      <point x="159" y="43"/>
      <point x="128" y="47" type="curve"/>
      <point x="101" y="0" type="line"/>
      <point x="138" y="-2"/>
      <point x="201" y="-3"/>
      <point x="227" y="-3" type="curve" smooth="yes"/>
      <point x="389" y="-3"/>
      <point x="474" y="61"/>
      <point x="474" y="177" type="curve" smooth="yes"/>
      <point x="474" y="267"/>
      <point x="423" y="319"/>
      <point x="333" y="334" type="curve"/>
      <point x="393" y="359"/>
      <point x="429" y="411"/>
      <point x="429" y="489" type="curve" smooth="yes"/>
      <point x="429" y="587"/>
      <point x="365" y="640"/>
      <point x="253" y="640" type="curve"/>
    </contour>
    <contour>
      <point x="101" y="639" type="line"/>
      <point x="104" y="194" type="line"/>
      <point x="101" y="0" type="line"/>
      <point x="153" y="0" type="line"/>
      <point x="151" y="197" type="line"/>
      <point x="154" y="639" type="line"/>
    </contour>
  </outline>
</glyph>
<glyph name="D" format="1">
  <advance width="642"/>
  <unicode hex="0044"/>
  <outline>
    <contour>
      <point x="101" y="639" type="line"/>
      <point x="141" y="594" type="line"/>
      <point x="170" y="595"/>
      <point x="292" y="599"/>
      <point x="315" y="599" type="curve" smooth="yes"/>
      <point x="465" y="599"/>
      <point x="546" y="508"/>
      <point x="546" y="332" type="curve" smooth="yes"/>
      <point x="546" y="140"/>
      <point x="460" y="39"/>
      <point x="308" y="39" type="curve" smooth="yes"/>
      <point x="283" y="39"/>
      <point x="174" y="43"/>
      <point x="136" y="46" type="curve"/>
      <point x="101" y="0" type="line"/>
      <point x="151" y="-2"/>
      <point x="269" y="-5"/>
      <point x="301" y="-5" type="curve"/>
      <point x="492" y="-5"/>
      <point x="599" y="118"/>
      <point x="599" y="341" type="curve" smooth="yes"/>
      <point x="599" y="536"/>
      <point x="499" y="643"/>
      <point x="318" y="643" type="curve"/>
    </contour>
    <contour>
      <point x="101" y="639" type="line"/>
      <point x="104" y="194" type="line"/>
      <point x="101" y="0" type="line"/>
      <point x="153" y="0" type="line"/>
      <point x="151" y="197" type="line"/>
      <point x="154" y="639" type="line"/>
    </contour>
    <contour>
      <point x="325" y="320" type="move" name="center"/>
    </contour>
    <contour>
      <point x="311" y="639" type="move" name="top"/>
    </contour>
  </outline>
</glyph>
<glyph name="E" format="1">
  <advance width="469"/>
  <unicode hex="0045"/>
  <outline>
    <contour>
      <point x="101" y="639" type="line"/>
      <point x="104" y="194" type="line"/>
      <point x="101" y="0" type="line"/>
      <point x="153" y="0" type="line"/>
      <point x="151" y="197" type="line"/>
      <point x="154" y="639" type="line"/>
    </contour>
    <contour>
      <point x="282" y="44" type="line"/>
      <point x="137" y="45" type="line"/>
      <point x="133" y="5" type="line"/>
      <point x="137" y="0" type="line"/>
      <point x="438" y="0" type="line"/>
      <point x="443" y="41" type="line"/>
      <point x="439" y="47" type="line"/>
    </contour>
    <contour>
      <point x="277" y="351" type="line"/>
      <point x="138" y="352" type="line"/>
      <point x="134" y="312" type="line"/>
      <point x="138" y="307" type="line"/>
      <point x="271" y="307" type="line"/>
      <point x="382" y="306" type="line"/>
      <point x="388" y="347" type="line"/>
      <point x="383" y="352" type="line"/>
    </contour>
    <contour>
      <point x="137" y="639" type="line"/>
      <point x="133" y="599" type="line"/>
      <point x="137" y="593" type="line"/>
      <point x="286" y="594" type="line"/>
      <point x="435" y="592" type="line"/>
      <point x="441" y="633" type="line"/>
      <point x="437" y="639" type="line"/>
    </contour>
    <contour>
      <point x="274" y="0" type="move" name="bottom"/>
    </contour>
    <contour>
      <point x="449" y="10" type="move" name="ogonek"/>
    </contour>
    <contour>
      <point x="270" y="639" type="move" name="top"/>
    </contour>
  </outline>
</glyph>
<glyph name="G" format="1">
  <advance width="602"/>
  <unicode hex="0047"/>
  <outline>
    <contour>
      <point x="153" y="644"/>
      <point x="43" y="526"/>
      <point x="43" y="310" type="curve" smooth="yes"/>
      <point x="43" y="109"/>
      <point x="136" y="-6"/>
      <point x="317" y="-6" type="curve" smooth="yes"/>
      <point x="384" y="-5"/>
      <point x="439" y="5"/>
      <point x="527" y="30" type="curve"/>
      <point x="525" y="165" type="line"/>
      <point x="526" y="248" type="line"/>
      <point x="477" y="244" type="line"/>
      <point x="478" y="159" type="line"/>
      <point x="476" y="66" type="line"/>
      <point x="406" y="46"/>
      <point x="368" y="40"/>
      <point x="318" y="40" type="curve" smooth="yes"/>
      <point x="172" y="40"/>
      <point x="96" y="130"/>
      <point x="96" y="312" type="curve" smooth="yes"/>
      <point x="96" y="502"/>
      <point x="183" y="599"/>
      <point x="341" y="599" type="curve" smooth="yes"/>
      <point x="397" y="599"/>
      <point x="451" y="581"/>
      <point x="511" y="545" type="curve"/>
      <point x="520" y="546" type="line"/>
      <point x="532" y="594" type="line"/>
      <point x="471" y="628"/>
      <point x="409" y="644"/>
      <point x="347" y="644" type="curve" smooth="yes"/>
    </contour>
    <contour>
      <point x="310" y="0" type="move" name="bottom"/>
    </contour>
    <contour>
      <point x="325" y="639" type="move" name="top"/>
    </contour>
  </outline>
</glyph>
<glyph name="M" format="1">
  <advance width="785"/>
  <unicode hex="004D"/>
  <outline>
    <contour>
      <point x="593" y="639" type="line"/>
      <point x="558" y="549" type="line"/>
      <point x="393" y="146" type="line"/>
      <point x="388" y="146" type="line"/>
      <point x="231" y="541" type="line"/>
      <point x="195" y="639" type="line"/>
      <point x="136" y="639" type="line"/>
      <point x="67" y="0" type="line"/>
      <point x="113" y="0" type="line"/>
      <point x="132" y="198" type="line"/>
      <point x="170" y="549" type="line"/>
      <point x="177" y="549" type="line"/>
      <point x="365" y="77" type="line"/>
      <point x="412" y="77" type="line"/>
      <point x="607" y="549" type="line"/>
      <point x="613" y="549" type="line"/>
      <point x="652" y="195" type="line"/>
      <point x="669" y="0" type="line"/>
      <point x="717" y="0" type="line"/>
      <point x="652" y="639" type="line"/>
    </contour>
  </outline>
</glyph>
<glyph name="O" format="1">
  <advance width="631"/>
  <unicode hex="004F"/>
  <outline>
    <contour>
      <point x="143" y="645"/>
      <point x="43" y="527"/>
      <point x="43" y="316" type="curve" smooth="yes"/>
      <point x="43" y="110"/>
      <point x="138" y="-6"/>
      <point x="309" y="-6" type="curve" smooth="yes"/>
      <point x="489" y="-6"/>
      <point x="589" y="114"/>
      <point x="589" y="331" type="curve" smooth="yes"/>
      <point x="589" y="532"/>
      <point x="494" y="645"/>
      <point x="323" y="645" type="curve"/>
    </contour>
    <contour>
      <point x="460" y="600"/>
      <point x="535" y="506"/>
      <point x="535" y="324" type="curve" smooth="yes"/>
      <point x="535" y="136"/>
      <point x="457" y="38"/>
      <point x="311" y="38" type="curve" smooth="yes"/>
      <point x="170" y="38"/>
      <point x="95" y="135"/>
      <point x="95" y="321" type="curve" smooth="yes"/>
      <point x="95" y="504"/>
      <point x="172" y="600"/>
      <point x="318" y="600" type="curve" smooth="yes"/>
    </contour>
    <contour>
      <point x="316" y="639" type="move" name="top"/>
    </contour>
  </outline>
</glyph>
<glyph name="P" format="1">
  <advance width="503"/>
  <unicode hex="0050"/>
  <outline>
    <contour>
      <point x="101" y="639" type="line"/>
      <point x="126" y="594" type="line"/>
      <point x="264" y="596" type="line"/>
      <point x="357" y="593"/>
      <point x="407" y="545"/>
      <point x="407" y="453" type="curve" smooth="yes"/>
      <point x="407" y="354"/>
      <point x="356" y="292"/>
      <point x="263" y="280" type="curve"/>
      <point x="122" y="282" type="line"/>
      <point x="122" y="236" type="line"/>
      <point x="233" y="236" type="line"/>
      <point x="377" y="236"/>
      <point x="460" y="318"/>
      <point x="460" y="457" type="curve" smooth="yes"/>
      <point x="460" y="575"/>
      <point x="392" y="640"/>
      <point x="271" y="640" type="curve"/>
    </contour>
    <contour>
      <point x="101" y="639" type="line"/>
      <point x="104" y="194" type="line"/>
      <point x="101" y="0" type="line"/>
      <point x="153" y="0" type="line"/>
      <point x="151" y="197" type="line"/>
      <point x="154" y="639" type="line"/>
    </contour>
  </outline>
</glyph>
<glyph name="R" format="1">
  <advance width="538"/>
  <unicode hex="0052"/>
  <outline>
    <contour>
      <point x="101" y="639" type="line"/>
      <point x="126" y="594" type="line"/>
      <point x="264" y="596" type="line"/>
      <point x="357" y="593"/>
      <point x="407" y="547"/>
      <point x="407" y="458" type="curve" smooth="yes"/>
      <point x="407" y="372"/>
      <point x="363" y="316"/>
      <point x="282" y="294" type="curve"/>
      <point x="122" y="296" type="line"/>
      <point x="122" y="250" type="line"/>
      <point x="284" y="250" type="line"/>
      <point x="395" y="278"/>
      <point x="460" y="356"/>
      <point x="460" y="461" type="curve" smooth="yes"/>
      <point x="460" y="577"/>
      <point x="392" y="640"/>
      <point x="271" y="640" type="curve"/>
    </contour>
    <contour>
      <point x="101" y="639" type="line"/>
      <point x="104" y="194" type="line"/>
      <point x="101" y="0" type="line"/>
      <point x="153" y="0" type="line"/>
      <point x="151" y="197" type="line"/>
      <point x="154" y="639" type="line"/>
    </contour>
    <contour>
      <point x="260" y="279" type="line"/>
      <point x="314" y="183"/>
      <point x="376" y="88"/>
      <point x="441" y="-4" type="curve"/>
      <point x="449" y="-8" type="line"/>
      <point x="465" y="-5"/>
      <point x="480" y="-2"/>
      <point x="494" y="5" type="curve"/>
      <point x="495" y="12" type="line"/>
      <point x="428" y="100"/>
      <point x="367" y="188"/>
      <point x="311" y="279" type="curve"/>
    </contour>
    <contour>
      <point x="269" y="0" type="move" name="bottom"/>
    </contour>
    <contour>
      <point x="269" y="639" type="move" name="top"/>
    </contour>
  </outline>
</glyph>
<glyph name="V" format="1">
  <advance width="552"/>
  <unicode hex="0056"/>
  <outline>
    <contour>
      <point x="489" y="639" type="line"/>
      <point x="474" y="582" type="line"/>
      <point x="274" y="59" type="line"/>
      <point x="269" y="59" type="line"/>
      <point x="85" y="584" type="line"/>
      <point x="71" y="639" type="line"/>
      <point x="17" y="639" type="line"/>
      <point x="240" y="0" type="line"/>
      <point x="299" y="0" type="line"/>
      <point x="543" y="639" type="line" smooth="yes"/>
    </contour>
  </outline>
</glyph>
<glyph name="Y" format="1">
  <advance width="512"/>
  <unicode hex="0059"/>
  <outline>
    <contour>
      <point x="434" y="639" type="line"/>
      <point x="422" y="607" type="line"/>
      <point x="252" y="298" type="line"/>
      <point x="245" y="298" type="line"/>
      <point x="90" y="608" type="line"/>
      <point x="78" y="639" type="line"/>
      <point x="20" y="639" type="line"/>
      <point x="238" y="207" type="line"/>
      <point x="256" y="207" type="line"/>
      <point x="492" y="639" type="line" smooth="yes"/>
    </contour>
    <contour>
      <point x="223" y="270" type="line"/>
      <point x="224" y="191" type="line"/>
      <point x="221" y="0" type="line"/>
      <point x="273" y="0" type="line"/>
      <point x="271" y="191" type="line"/>
      <point x="272" y="270" type="line"/>
    </contour>
    <contour>
      <point x="249" y="639" type="move" name="top"/>
    </contour>
  </outline>
</glyph>
<glyph name="bracketleft" format="1">
  <advance width="285"/>
  <unicode hex="005B"/>
  <outline>
    <contour>
      <point x="107" y="636" type="line"/>
      <point x="109" y="258" type="line"/>
      <point x="107" y="-121" type="line"/>
      <point x="270" y="-131" type="line"/>
      <point x="275" y="-127" type="line"/>
      <point x="275" y="-99" type="line"/>
      <point x="151" y="-89" type="line"/>
      <point x="151" y="604" type="line"/>
      <point x="275" y="614" type="line"/>
      <point x="275" y="642" type="line"/>
      <point x="270" y="646" type="line"/>
    </contour>
  </outline>
</glyph>
<glyph name="b" format="1">
  <advance width="507"/>
  <unicode hex="0062"/>
  <outline>
    <contour>
      <point x="233" y="453"/>
      <point x="190" y="431"/>
      <point x="149" y="390" type="curve"/>
      <point x="129" y="390" type="line"/>
      <point x="134" y="328" type="line"/>
      <point x="180" y="387"/>
      <point x="229" y="416"/>
      <point x="281" y="416" type="curve" smooth="yes"/>
      <point x="363" y="416"/>
      <point x="408" y="350"/>
      <point x="409" y="236" type="curve" smooth="yes"/>
      <point x="410" y="103"/>
      <point x="348" y="33"/>
      <point x="246" y="33" type="curve" smooth="yes"/>
      <point x="206" y="33"/>
      <point x="157" y="49"/>
      <point x="107" y="84" type="curve"/>
      <point x="101" y="29" type="line"/>
      <point x="144" y="7"/>
      <point x="194" y="-7"/>
      <point x="243" y="-7" type="curve" smooth="yes"/>
      <point x="378" y="-7"/>
      <point x="458" y="83"/>
      <point x="458" y="240" type="curve" smooth="yes"/>
      <point x="458" y="378"/>
      <point x="397" y="460"/>
      <point x="285" y="460" type="curve" smooth="yes"/>
    </contour>
    <contour>
      <point x="93" y="697" type="line"/>
      <point x="96" y="193" type="line"/>
      <point x="93" y="-0" type="line"/>
      <point x="103" y="-6" type="line"/>
      <point x="144" y="14" type="line"/>
      <point x="142" y="198" type="line"/>
      <point x="145" y="702" type="line"/>
    </contour>
  </outline>
</glyph>
<glyph name="c" format="1">
  <advance width="386"/>
  <unicode hex="0063"/>
  <outline>
    <contour>
      <point x="122" y="462"/>
      <point x="49" y="369"/>
      <point x="49" y="224" type="curve" smooth="yes"/>
      <point x="49" y="83"/>
      <point x="120" y="-6"/>
      <point x="235" y="-6" type="curve" smooth="yes"/>
      <point x="280" y="-6"/>
      <point x="327" y="8"/>
      <point x="362" y="27" type="curve"/>
      <point x="367" y="71" type="line"/>
      <point x="360" y="75" type="line"/>
      <point x="326" y="52"/>
      <point x="281" y="37"/>
      <point x="240" y="37" type="curve" smooth="yes"/>
      <point x="152" y="37"/>
      <point x="98" y="111"/>
      <point x="98" y="226" type="curve" smooth="yes"/>
      <point x="98" y="345"/>
      <point x="152" y="418"/>
      <point x="238" y="418" type="curve" smooth="yes"/>
      <point x="278" y="418"/>
      <point x="318" y="402"/>
      <point x="347" y="382" type="curve"/>
      <point x="355" y="383" type="line"/>
      <point x="366" y="428" type="line"/>
      <point x="333" y="448"/>
      <point x="284" y="462"/>
      <point x="240" y="462" type="curve" smooth="yes"/>
    </contour>
    <contour>
      <point x="230" y="0" type="move" name="bottom"/>
    </contour>
    <contour>
      <point x="235" y="455" type="move" name="top"/>
    </contour>
  </outline>
</glyph>
<glyph name="d" format="1">
  <advance width="512"/>
  <unicode hex="0064"/>
  <outline>
    <contour>
      <point x="362" y="697" type="line"/>
      <point x="363" y="449" type="line"/>
      <point x="330" y="457"/>
      <point x="296" y="462"/>
      <point x="265" y="462" type="curve" smooth="yes"/>
      <point x="128" y="462"/>
      <point x="48" y="375"/>
      <point x="48" y="223" type="curve" smooth="yes"/>
      <point x="48" y="78"/>
      <point x="119" y="-5"/>
      <point x="238" y="-5" type="curve" smooth="yes"/>
      <point x="287" y="4"/>
      <point x="323" y="26"/>
      <point x="363" y="67" type="curve"/>
      <point x="368" y="67" type="line"/>
      <point x="371" y="21"/>
      <point x="392" y="-3"/>
      <point x="431" y="-4" type="curve" smooth="yes"/>
      <point x="449" y="-3"/>
      <point x="467" y="3"/>
      <point x="481" y="12" type="curve"/>
      <point x="487" y="45" type="line"/>
      <point x="480" y="50" type="line"/>
      <point x="466" y="43"/>
      <point x="454" y="40"/>
      <point x="443" y="40" type="curve" smooth="yes"/>
      <point x="420" y="40"/>
      <point x="412" y="53"/>
      <point x="411" y="87" type="curve" smooth="yes"/>
      <point x="410" y="198" type="line"/>
      <point x="413" y="702" type="line"/>
    </contour>
    <contour>
      <point x="294" y="423"/>
      <point x="328" y="415"/>
      <point x="363" y="401" type="curve"/>
      <point x="364" y="194" type="line"/>
      <point x="363" y="113" type="line"/>
      <point x="323" y="61"/>
      <point x="282" y="40"/>
      <point x="236" y="40" type="curve" smooth="yes"/>
      <point x="153" y="40"/>
      <point x="98" y="107"/>
      <point x="97" y="227" type="curve" smooth="yes"/>
      <point x="96" y="354"/>
      <point x="158" y="423"/>
      <point x="261" y="423" type="curve" smooth="yes"/>
    </contour>
    <contour>
      <point x="256" y="228" type="move" name="center"/>
    </contour>
  </outline>
</glyph>
<glyph name="e" format="1">
  <advance width="443"/>
  <unicode hex="0065"/>
  <outline>
    <contour>
      <point x="128" y="461"/>
      <point x="49" y="370"/>
      <point x="49" y="223" type="curve" smooth="yes"/>
      <point x="49" y="83"/>
      <point x="121" y="-6"/>
      <point x="243" y="-6" type="curve" smooth="yes"/>
      <point x="292" y="-6"/>
      <point x="338" y="9"/>
      <point x="377" y="34" type="curve"/>
      <point x="383" y="79" type="line"/>
      <point x="376" y="82" type="line"/>
      <point x="338" y="53"/>
      <point x="290" y="37"/>
      <point x="247" y="37" type="curve" smooth="yes"/>
      <point x="150" y="37"/>
      <point x="98" y="110"/>
      <point x="98" y="226" type="curve" smooth="yes"/>
      <point x="98" y="348"/>
      <point x="155" y="422"/>
      <point x="246" y="422" type="curve" smooth="yes"/>
      <point x="313" y="422"/>
      <point x="356" y="380"/>
      <point x="356" y="300" type="curve"/>
      <point x="354" y="287" type="line"/>
      <point x="85" y="279" type="line"/>
      <point x="85" y="242" type="line"/>
      <point x="389" y="247" type="line"/>
      <point x="401" y="257" type="line"/>
      <point x="402" y="267"/>
      <point x="403" y="286"/>
      <point x="403" y="295" type="curve" smooth="yes"/>
      <point x="403" y="398"/>
      <point x="346" y="461"/>
      <point x="250" y="461" type="curve" smooth="yes"/>
    </contour>
    <contour>
      <point x="120" y="0" type="move" name="bottom"/>
    </contour>
    <contour>
      <point x="396" y="10" type="move" name="ogonek"/>
    </contour>
    <contour>
      <point x="238" y="455" type="move" name="top"/>
    </contour>
  </outline>
</glyph>
<glyph name="g" format="1">
  <advance width="480"/>
  <unicode hex="0067"/>
  <outline>
    <contour>
      <point x="130" y="171" type="line"/>
      <point x="102" y="152"/>
      <point x="80" y="131"/>
      <point x="71" y="111" type="curve"/>
      <point x="70" y="-16"/>
      <point x="381" y="58"/>
      <point x="381" y="-55" type="curve" smooth="yes"/>
      <point x="381" y="-108"/>
      <point x="312" y="-154"/>
      <point x="225" y="-154" type="curve" smooth="yes"/>
      <point x="146" y="-154"/>
      <point x="104" y="-117"/>
      <point x="104" y="-76" type="curve" smooth="yes"/>
      <point x="104" y="-35"/>
      <point x="146" y="-2"/>
      <point x="205" y="30" type="curve"/>
      <point x="152" y="41" type="line"/>
      <point x="152" y="31" type="line"/>
      <point x="102" y="2"/>
      <point x="71" y="-27"/>
      <point x="57" y="-69" type="curve"/>
      <point x="57" y="-140"/>
      <point x="117" y="-192"/>
      <point x="220" y="-192" type="curve" smooth="yes"/>
      <point x="334" y="-192"/>
      <point x="427" y="-127"/>
      <point x="427" y="-48" type="curve" smooth="yes"/>
      <point x="427" y="95"/>
      <point x="120" y="36"/>
      <point x="120" y="113" type="curve" smooth="yes"/>
      <point x="120" y="128"/>
      <point x="131" y="140"/>
      <point x="168" y="166" type="curve"/>
      <point x="130" y="180" type="line"/>
    </contour>
    <contour>
      <point x="310" y="422"/>
      <point x="353" y="380"/>
      <point x="353" y="307" type="curve" smooth="yes"/>
      <point x="353" y="232"/>
      <point x="307" y="188"/>
      <point x="232" y="188" type="curve" smooth="yes"/>
      <point x="157" y="188"/>
      <point x="114" y="232"/>
      <point x="114" y="304" type="curve" smooth="yes"/>
      <point x="114" y="379"/>
      <point x="160" y="422"/>
      <point x="236" y="422" type="curve" smooth="yes"/>
    </contour>
    <contour>
      <point x="132" y="460"/>
      <point x="67" y="401"/>
      <point x="67" y="302" type="curve" smooth="yes"/>
      <point x="67" y="208"/>
      <point x="126" y="150"/>
      <point x="230" y="150" type="curve" smooth="yes"/>
      <point x="334" y="150"/>
      <point x="399" y="211"/>
      <point x="399" y="307" type="curve" smooth="yes"/>
      <point x="399" y="400"/>
      <point x="338" y="460"/>
      <point x="236" y="460" type="curve" smooth="yes"/>
    </contour>
    <contour>
      <point x="422" y="458"/>
      <point x="367" y="446"/>
      <point x="319" y="437" type="curve"/>
      <point x="364" y="391" type="line"/>
      <point x="371" y="406" type="line"/>
      <point x="404" y="412"/>
      <point x="437" y="419"/>
      <point x="471" y="428" type="curve"/>
      <point x="471" y="466" type="line"/>
      <point x="465" y="470" type="line"/>
    </contour>
    <contour>
      <point x="241" y="445" type="move" name="top"/>
    </contour>
  </outline>
</glyph>
<glyph name="h" format="1">
  <advance width="513"/>
  <unicode hex="0068"/>
  <outline>
    <contour>
      <point x="245" y="456"/>
      <point x="194" y="428"/>
      <point x="149" y="384" type="curve"/>
      <point x="138" y="384" type="line"/>
      <point x="139" y="328" type="line"/>
      <point x="187" y="384"/>
      <point x="240" y="416"/>
      <point x="290" y="416" type="curve" smooth="yes"/>
      <point x="351" y="416"/>
      <point x="384" y="378"/>
      <point x="384" y="315" type="curve" smooth="yes"/>
      <point x="380" y="0" type="line"/>
      <point x="432" y="0" type="line"/>
      <point x="430" y="197" type="line"/>
      <point x="432" y="325" type="line" smooth="yes"/>
      <point x="433" y="411"/>
      <point x="383" y="461"/>
      <point x="289" y="461" type="curve" smooth="yes"/>
    </contour>
    <contour>
      <point x="255" y="246" type="move"/>
    </contour>
    <component base="l"/>
    <contour>
      <point x="258" y="228" type="move" name="center"/>
    </contour>
    <contour>
      <point x="119" y="643" type="move" name="top"/>
    </contour>
  </outline>
</glyph>
<glyph name="m" format="1">
  <advance width="793"/>
  <unicode hex="006D"/>
  <outline>
    <contour>
      <point x="525" y="455"/>
      <point x="471" y="426"/>
      <point x="424" y="380" type="curve"/>
      <point x="409" y="380" type="line"/>
      <point x="421" y="331" type="line"/>
      <point x="469" y="385"/>
      <point x="522" y="416"/>
      <point x="572" y="416" type="curve" smooth="yes"/>
      <point x="632" y="416"/>
      <point x="666" y="378"/>
      <point x="665" y="315" type="curve" smooth="yes"/>
      <point x="661" y="0" type="line"/>
      <point x="713" y="0" type="line"/>
      <point x="712" y="197" type="line"/>
      <point x="713" y="325" type="line" smooth="yes"/>
      <point x="713" y="411"/>
      <point x="664" y="461"/>
      <point x="571" y="461" type="curve" smooth="yes"/>
    </contour>
    <contour>
      <point x="89" y="451" type="line"/>
      <point x="91" y="195" type="line"/>
      <point x="89" y="0" type="line"/>
      <point x="140" y="0" type="line"/>
      <point x="138" y="198" type="line"/>
      <point x="139" y="457" type="line"/>
    </contour>
    <contour>
      <point x="271" y="131" type="move"/>
    </contour>
    <contour>
      <point x="240" y="456"/>
      <point x="190" y="428"/>
      <point x="145" y="384" type="curve"/>
      <point x="134" y="384" type="line"/>
      <point x="135" y="328" type="line"/>
      <point x="183" y="384"/>
      <point x="236" y="416"/>
      <point x="286" y="416" type="curve" smooth="yes"/>
      <point x="346" y="416"/>
      <point x="379" y="378"/>
      <point x="379" y="315" type="curve" smooth="yes"/>
      <point x="375" y="0" type="line"/>
      <point x="427" y="0" type="line"/>
      <point x="426" y="197" type="line"/>
      <point x="427" y="325" type="line" smooth="yes"/>
      <point x="427" y="411"/>
      <point x="378" y="461"/>
      <point x="285" y="461" type="curve" smooth="yes"/>
    </contour>
  </outline>
</glyph>
<glyph name="n" format="1">
  <advance width="509"/>
  <unicode hex="006E"/>
  <outline>
    <contour>
      <point x="240" y="456"/>
      <point x="189" y="428"/>
      <point x="144" y="384" type="curve"/>
      <point x="133" y="384" type="line"/>
      <point x="134" y="328" type="line"/>
      <point x="182" y="384"/>
      <point x="235" y="416"/>
      <point x="285" y="416" type="curve" smooth="yes"/>
      <point x="346" y="416"/>
      <point x="379" y="378"/>
      <point x="379" y="315" type="curve" smooth="yes"/>
      <point x="375" y="0" type="line"/>
      <point x="428" y="0" type="line"/>
      <point x="426" y="197" type="line"/>
      <point x="427" y="325" type="line" smooth="yes"/>
      <point x="427" y="411"/>
      <point x="378" y="461"/>
      <point x="284" y="461" type="curve" smooth="yes"/>
    </contour>
    <contour>
      <point x="89" y="451" type="line"/>
      <point x="91" y="195" type="line"/>
      <point x="89" y="0" type="line"/>
      <point x="140" y="0" type="line"/>
      <point x="138" y="198" type="line"/>
      <point x="139" y="457" type="line"/>
    </contour>
    <contour>
      <point x="255" y="0" type="move" name="bottom"/>
    </contour>
    <contour>
      <point x="268" y="455" type="move" name="top"/>
    </contour>
  </outline>
</glyph>
<glyph name="o" format="1">
  <advance width="489"/>
  <unicode hex="006F"/>
  <outline>
    <contour>
      <point x="123" y="462"/>
      <point x="49" y="373"/>
      <point x="49" y="222" type="curve" smooth="yes"/>
      <point x="49" y="79"/>
      <point x="119" y="-6"/>
      <point x="239" y="-6" type="curve" smooth="yes"/>
      <point x="365" y="-6"/>
      <point x="439" y="83"/>
      <point x="439" y="233" type="curve" smooth="yes"/>
      <point x="439" y="377"/>
      <point x="368" y="462"/>
      <point x="249" y="462" type="curve" smooth="yes"/>
    </contour>
    <contour>
      <point x="337" y="423"/>
      <point x="390" y="351"/>
      <point x="390" y="223" type="curve" smooth="yes"/>
      <point x="390" y="101"/>
      <point x="336" y="33"/>
      <point x="242" y="33" type="curve" smooth="yes"/>
      <point x="151" y="33"/>
      <point x="98" y="103"/>
      <point x="98" y="232" type="curve" smooth="yes"/>
      <point x="98" y="353"/>
      <point x="152" y="423"/>
      <point x="246" y="423" type="curve" smooth="yes"/>
    </contour>
    <contour>
      <point x="244" y="455" type="move" name="top"/>
    </contour>
  </outline>
</glyph>
<glyph name="u" format="1">
  <advance width="508"/>
  <unicode hex="0075"/>
  <outline>
    <contour>
      <point x="360" y="451" type="line"/>
      <point x="360" y="115" type="line"/>
      <point x="313" y="66"/>
      <point x="264" y="40"/>
      <point x="218" y="40" type="curve" smooth="yes"/>
      <point x="160" y="40"/>
      <point x="129" y="77"/>
      <point x="130" y="141" type="curve" smooth="yes"/>
      <point x="133" y="457" type="line"/>
      <point x="81" y="451" type="line"/>
      <point x="83" y="240" type="line"/>
      <point x="82" y="131" type="line" smooth="yes"/>
      <point x="81" y="44"/>
      <point x="129" y="-5"/>
      <point x="217" y="-5" type="curve" smooth="yes"/>
      <point x="265" y="0"/>
      <point x="313" y="26"/>
      <point x="358" y="71" type="curve"/>
      <point x="364" y="71" type="line"/>
      <point x="367" y="22"/>
      <point x="388" y="-3"/>
      <point x="426" y="-4" type="curve" smooth="yes"/>
      <point x="445" y="-3"/>
      <point x="463" y="3"/>
      <point x="477" y="12" type="curve"/>
      <point x="483" y="45" type="line"/>
      <point x="476" y="50" type="line"/>
      <point x="462" y="43"/>
      <point x="449" y="40"/>
      <point x="439" y="40" type="curve" smooth="yes"/>
      <point x="416" y="40"/>
      <point x="406" y="54"/>
      <point x="406" y="89" type="curve" smooth="yes"/>
      <point x="409" y="457" type="line"/>
    </contour>
    <contour>
      <point x="457" y="10" type="move" name="ogonek"/>
    </contour>
    <contour>
      <point x="255" y="455" type="move" name="top"/>
    </contour>
  </outline>
</glyph>
<glyph name="v" format="1">
  <advance width="415"/>
  <unicode hex="0076"/>
  <outline>
    <contour>
      <point x="25" y="453" type="line"/>
      <point x="173" y="0" type="line"/>
      <point x="228" y="0" type="line"/>
      <point x="403" y="455" type="line"/>
      <point x="354" y="455" type="line"/>
      <point x="338" y="402" type="line"/>
      <point x="206" y="57" type="line"/>
      <point x="201" y="57" type="line"/>
      <point x="87" y="404" type="line"/>
      <point x="74" y="458" type="line"/>
    </contour>
  </outline>
</glyph>
<glyph name="y" format="1">
  <advance width="416"/>
  <unicode hex="0079"/>
  <outline>
    <contour>
      <point x="15" y="453" type="line"/>
      <point x="182" y="0" type="line"/>
      <point x="138" y="-96"/>
      <point x="89" y="-129"/>
      <point x="-18" y="-150" type="curve"/>
      <point x="-19" y="-158" type="line"/>
      <point x="-13" y="-170"/>
      <point x="-6" y="-180"/>
      <point x="4" y="-190" type="curve"/>
      <point x="11" y="-190" type="line"/>
      <point x="129" y="-164"/>
      <point x="185" y="-117"/>
      <point x="232" y="9" type="curve" smooth="yes"/>
      <point x="402" y="455" type="line"/>
      <point x="352" y="455" type="line"/>
      <point x="337" y="401" type="line"/>
      <point x="210" y="64" type="line"/>
      <point x="204" y="64" type="line"/>
      <point x="80" y="405" type="line"/>
      <point x="65" y="458" type="line"/>
    </contour>
    <contour>
      <point x="211" y="455" type="move" name="top"/>
    </contour>
  </outline>
</glyph>
<glyph name="bar" format="1">
  <advance width="317"/>
  <unicode hex="007C"/>
  <outline>
    <contour>
      <point x="137" y="791" type="line"/>
      <point x="137" y="284" type="line"/>
      <point x="137" y="-257" type="line"/>
      <point x="142" y="-264" type="line"/>
      <point x="179" y="-262" type="line"/>
      <point x="179" y="286" type="line"/>
      <point x="180" y="790" type="line"/>
      <point x="176" y="794" type="line"/>
    </contour>
  </outline>
</glyph>
<glyph name="sterling" format="1">
  <advance width="401"/>
  <unicode hex="00A3"/>
  <outline>
    <contour>
      <point x="153" y="592"/>
      <point x="102" y="538"/>
      <point x="102" y="438" type="curve" smooth="yes"/>
      <point x="103" y="143" type="line" smooth="yes"/>
      <point x="103" y="79"/>
      <point x="78" y="41"/>
      <point x="32" y="33" type="curve"/>
      <point x="28" y="5" type="line"/>
      <point x="32" y="0" type="line"/>
      <point x="276" y="0" type="line"/>
      <point x="362" y="-1" type="line"/>
      <point x="367" y="38" type="line"/>
      <point x="363" y="44" type="line"/>
      <point x="282" y="40" type="line"/>
      <point x="107" y="40" type="line"/>
      <point x="107" y="42" type="line"/>
      <point x="134" y="65"/>
      <point x="147" y="97"/>
      <point x="147" y="146" type="curve" smooth="yes"/>
      <point x="147" y="444" type="line" smooth="yes"/>
      <point x="147" y="516"/>
      <point x="179" y="556"/>
      <point x="246" y="556" type="curve" smooth="yes"/>
      <point x="276" y="556"/>
      <point x="310" y="548"/>
      <point x="344" y="529" type="curve"/>
      <point x="348" y="533" type="line"/>
      <point x="351" y="574" type="line"/>
      <point x="313" y="586"/>
      <point x="278" y="592"/>
      <point x="247" y="592" type="curve" smooth="yes"/>
    </contour>
    <contour>
      <point x="33" y="332" type="line"/>
      <point x="29" y="304" type="line"/>
      <point x="33" y="299" type="line"/>
      <point x="272" y="299" type="line"/>
      <point x="276" y="327" type="line"/>
      <point x="272" y="332" type="line"/>
    </contour>
  </outline>
</glyph>
<glyph name="dieresis" format="1">
  <advance width="390"/>
  <unicode hex="00A8"/>
  <outline>
    <component base="dotaccent" xOffset="4" yOffset="1" xScale="0.98" yScale="0.98"/>
    <component base="dotaccent" xOffset="153" yOffset="1" xScale="0.98" yScale="0.98"/>
    <contour>
      <point x="194" y="455" type="move" name="_top"/>
    </contour>
  </outline>
</glyph>
<glyph name="AE" format="1">
  <advance width="800"/>
  <unicode hex="00C6"/>
  <outline>
    <contour>
      <point x="337" y="639" type="line"/>
      <point x="-15" y="0" type="line"/>
      <point x="41" y="0" type="line"/>
      <point x="65" y="56" type="line"/>
      <point x="354" y="579" type="line"/>
      <point x="358" y="579" type="line"/>
      <point x="442" y="54" type="line"/>
      <point x="447" y="0" type="line"/>
      <point x="775" y="0" type="line"/>
      <point x="780" y="41" type="line"/>
      <point x="776" y="47" type="line"/>
      <point x="612" y="44" type="line"/>
      <point x="494" y="44" type="line"/>
      <point x="408" y="595" type="line"/>
      <point x="510" y="595" type="line"/>
      <point x="674" y="592" type="line"/>
      <point x="681" y="633" type="line"/>
      <point x="676" y="639" type="line"/>
    </contour>
    <contour>
      <point x="439" y="324" type="line"/>
      <point x="145" y="267" type="line"/>
      <point x="126" y="218" type="line"/>
      <point x="442" y="281" type="line"/>
      <point x="681" y="325" type="line"/>
      <point x="680" y="364" type="line"/>
      <point x="675" y="368" type="line"/>
    </contour>
    <contour>
      <point x="495" y="639" type="move" name="top"/>
    </contour>
  </outline>
</glyph>
<glyph name="germandbls" format="1">
  <advance width="542"/>
  <unicode hex="00DF"/>
  <outline>
    <contour>
      <point x="181" y="704"/>
      <point x="111" y="635"/>
      <point x="111" y="512" type="curve" smooth="yes"/>
      <point x="113" y="190" type="line"/>
      <point x="110" y="0" type="line"/>
      <point x="161" y="0" type="line"/>
      <point x="158" y="195" type="line"/>
      <point x="160" y="516" type="line" smooth="yes"/>
      <point x="161" y="612"/>
      <point x="210" y="664"/>
      <point x="293" y="664" type="curve" smooth="yes"/>
      <point x="357" y="664"/>
      <point x="398" y="633"/>
      <point x="398" y="576" type="curve" smooth="yes"/>
      <point x="398" y="476"/>
      <point x="273" y="468"/>
      <point x="273" y="360" type="curve" smooth="yes"/>
      <point x="273" y="222"/>
      <point x="479" y="219"/>
      <point x="479" y="117" type="curve" smooth="yes"/>
      <point x="479" y="73"/>
      <point x="441" y="33"/>
      <point x="376" y="33" type="curve" smooth="yes"/>
      <point x="337" y="33"/>
      <point x="297" y="48"/>
      <point x="263" y="76" type="curve"/>
      <point x="256" y="72" type="line"/>
      <point x="249" y="27" type="line"/>
      <point x="286" y="6"/>
      <point x="331" y="-6"/>
      <point x="373" y="-6" type="curve" smooth="yes"/>
      <point x="469" y="-6"/>
      <point x="527" y="54"/>
      <point x="527" y="125" type="curve" smooth="yes"/>
      <point x="527" y="257"/>
      <point x="321" y="254"/>
      <point x="321" y="367" type="curve" smooth="yes"/>
      <point x="321" y="454"/>
      <point x="442" y="469"/>
      <point x="442" y="582" type="curve" smooth="yes"/>
      <point x="442" y="657"/>
      <point x="388" y="704"/>
      <point x="294" y="704" type="curve" smooth="yes"/>
    </contour>
    <contour>
      <point x="44" y="454" type="line"/>
      <point x="40" y="422" type="line"/>
      <point x="44" y="417" type="line"/>
      <point x="140" y="417" type="line"/>
      <point x="143" y="449" type="line"/>
      <point x="140" y="454" type="line"/>
    </contour>
  </outline>
</glyph>
<glyph name="ae" format="1">
  <advance width="671"/>
  <unicode hex="00E6"/>
  <outline>
    <contour>
      <point x="315" y="217" type="line"/>
      <point x="630" y="279" type="line"/>
      <point x="637" y="288" type="line"/>
      <point x="624" y="316" type="line"/>
      <point x="315" y="252" type="line"/>
    </contour>
    <contour>
      <point x="315" y="252" type="line"/>
      <point x="133" y="216" type="line" smooth="yes"/>
      <point x="76" y="205"/>
      <point x="45" y="171"/>
      <point x="45" y="114" type="curve" smooth="yes"/>
      <point x="45" y="41"/>
      <point x="94" y="-6"/>
      <point x="176" y="-6" type="curve"/>
      <point x="230" y="5"/>
      <point x="273" y="37"/>
      <point x="322" y="98" type="curve"/>
      <point x="352" y="31"/>
      <point x="406" y="-6"/>
      <point x="481" y="-6" type="curve" smooth="yes"/>
      <point x="526" y="-6"/>
      <point x="574" y="9"/>
      <point x="613" y="34" type="curve"/>
      <point x="619" y="77" type="line"/>
      <point x="612" y="81" type="line"/>
      <point x="577" y="52"/>
      <point x="530" y="35"/>
      <point x="485" y="35" type="curve" smooth="yes"/>
      <point x="390" y="35"/>
      <point x="341" y="107"/>
      <point x="341" y="234" type="curve" smooth="yes"/>
      <point x="341" y="269" type="line" smooth="yes"/>
      <point x="341" y="352"/>
      <point x="401" y="423"/>
      <point x="480" y="423" type="curve" smooth="yes"/>
      <point x="543" y="423"/>
      <point x="586" y="378"/>
      <point x="589" y="303" type="curve"/>
      <point x="637" y="288" type="line"/>
      <point x="636" y="401"/>
      <point x="575" y="461"/>
      <point x="485" y="461" type="curve" smooth="yes"/>
      <point x="423" y="461"/>
      <point x="371" y="433"/>
      <point x="334" y="373" type="curve"/>
      <point x="326" y="428"/>
      <point x="287" y="462"/>
      <point x="220" y="462" type="curve" smooth="yes"/>
      <point x="166" y="462"/>
      <point x="113" y="440"/>
      <point x="59" y="397" type="curve"/>
      <point x="67" y="360" type="line"/>
      <point x="74" y="357" type="line"/>
      <point x="127" y="401"/>
      <point x="172" y="422"/>
      <point x="214" y="422" type="curve" smooth="yes"/>
      <point x="267" y="422"/>
      <point x="298" y="391"/>
      <point x="298" y="334" type="curve" smooth="yes"/>
      <point x="298" y="230" type="line" smooth="yes"/>
      <point x="298" y="192"/>
      <point x="301" y="168"/>
      <point x="308" y="131" type="curve"/>
      <point x="252" y="65"/>
      <point x="217" y="39"/>
      <point x="173" y="39" type="curve" smooth="yes"/>
      <point x="124" y="39"/>
      <point x="92" y="69"/>
      <point x="92" y="118" type="curve" smooth="yes"/>
      <point x="92" y="151"/>
      <point x="107" y="172"/>
      <point x="150" y="182" type="curve" smooth="yes"/>
      <point x="315" y="217" type="line"/>
    </contour>
    <contour>
      <point x="340" y="455" type="move" name="top"/>
    </contour>
  </outline>
</glyph>
<glyph name="eth" format="1">
  <advance width="489"/>
  <unicode hex="00F0"/>
  <outline>
    <contour>
      <point x="106" y="704" type="line"/>
      <point x="78" y="680" type="line"/>
      <point x="78" y="673" type="line"/>
      <point x="286" y="589"/>
      <point x="391" y="442"/>
      <point x="391" y="242" type="curve" smooth="yes"/>
      <point x="391" y="105"/>
      <point x="341" y="31"/>
      <point x="245" y="31" type="curve" smooth="yes"/>
      <point x="152" y="31"/>
      <point x="95" y="100"/>
      <point x="95" y="224" type="curve" smooth="yes"/>
      <point x="95" y="348"/>
      <point x="152" y="420"/>
      <point x="250" y="420" type="curve" smooth="yes"/>
      <point x="302" y="420"/>
      <point x="346" y="400"/>
      <point x="382" y="361" type="curve"/>
      <point x="397" y="398" type="line"/>
      <point x="355" y="438"/>
      <point x="308" y="458"/>
      <point x="248" y="458" type="curve" smooth="yes"/>
      <point x="123" y="458"/>
      <point x="49" y="369"/>
      <point x="49" y="224" type="curve" smooth="yes"/>
      <point x="49" y="79"/>
      <point x="123" y="-6"/>
      <point x="242" y="-6" type="curve" smooth="yes"/>
      <point x="367" y="-6"/>
      <point x="436" y="87"/>
      <point x="436" y="244" type="curve" smooth="yes"/>
      <point x="436" y="451"/>
      <point x="319" y="619"/>
      <point x="111" y="704" type="curve"/>
    </contour>
    <contour>
      <point x="109" y="541" type="line"/>
      <point x="120" y="513" type="line"/>
      <point x="126" y="510" type="line"/>
      <point x="401" y="639" type="line"/>
      <point x="390" y="667" type="line"/>
      <point x="384" y="670" type="line"/>
    </contour>
  </outline>
</glyph>
<glyph name="oslash" format="1">
  <advance width="489"/>
  <unicode hex="00F8"/>
  <outline>
    <contour>
      <point x="372" y="541" type="line"/>
      <point x="71" y="-94" type="line"/>
      <point x="73" y="-100" type="line"/>
      <point x="104" y="-112" type="line"/>
      <point x="405" y="523" type="line"/>
      <point x="401" y="530" type="line"/>
    </contour>
    <component base="o"/>
    <contour>
      <point x="244" y="455" type="move" name="top"/>
    </contour>
  </outline>
</glyph>
<glyph name="thorn" format="1">
  <advance width="507"/>
  <unicode hex="00FE"/>
  <outline>
    <contour>
      <point x="233" y="453"/>
      <point x="190" y="431"/>
      <point x="149" y="390" type="curve"/>
      <point x="130" y="390" type="line"/>
      <point x="134" y="328" type="line"/>
      <point x="180" y="387"/>
      <point x="229" y="416"/>
      <point x="281" y="416" type="curve" smooth="yes"/>
      <point x="363" y="416"/>
      <point x="408" y="350"/>
      <point x="409" y="236" type="curve" smooth="yes"/>
      <point x="410" y="103"/>
      <point x="348" y="33"/>
      <point x="246" y="33" type="curve" smooth="yes"/>
      <point x="206" y="33"/>
      <point x="157" y="49"/>
      <point x="106" y="82" type="curve"/>
      <point x="103" y="27" type="line"/>
      <point x="145" y="6"/>
      <point x="195" y="-7"/>
      <point x="242" y="-7" type="curve" smooth="yes"/>
      <point x="378" y="-7"/>
      <point x="458" y="83"/>
      <point x="458" y="240" type="curve" smooth="yes"/>
      <point x="458" y="378"/>
      <point x="397" y="460"/>
      <point x="285" y="460" type="curve" smooth="yes"/>
    </contour>
    <contour>
      <point x="94" y="697" type="line"/>
      <point x="97" y="195" type="line"/>
      <point x="94" y="-185" type="line"/>
      <point x="145" y="-185" type="line"/>
      <point x="142" y="198" type="line"/>
      <point x="145" y="702" type="line"/>
    </contour>
  </outline>
</glyph>
<glyph name="aogonek" format="1">
  <advance width="453"/>
  <unicode hex="0105"/>
  <outline>
    <contour>
      <point x="379" y="14" type="line"/>
      <point x="300" y="-69"/>
      <point x="281" y="-99"/>
      <point x="281" y="-132" type="curve" smooth="yes"/>
      <point x="281" y="-173"/>
      <point x="312" y="-197"/>
      <point x="347" y="-197" type="curve" smooth="yes"/>
      <point x="381" y="-197"/>
      <point x="408" y="-176"/>
      <point x="432" y="-144" type="curve"/>
      <point x="420" y="-115" type="line"/>
      <point x="417" y="-115" type="line"/>
      <point x="398" y="-143"/>
      <point x="377" y="-159"/>
      <point x="354" y="-159" type="curve" smooth="yes"/>
      <point x="335" y="-159"/>
      <point x="319" y="-149"/>
      <point x="319" y="-124" type="curve" smooth="yes"/>
      <point x="319" y="-100"/>
      <point x="336" y="-74"/>
      <point x="414" y="12" type="curve"/>
    </contour>
    <component base="a"/>
  </outline>
</glyph>
<glyph name="hbar" format="1">
  <advance width="505"/>
  <unicode hex="0127"/>
  <outline>
    <contour>
      <point x="13" y="594" type="line"/>
      <point x="10" y="563" type="line"/>
      <point x="14" y="559" type="line"/>
      <point x="271" y="559" type="line"/>
      <point x="274" y="589" type="line"/>
      <point x="269" y="594" type="line"/>
    </contour>
    <component base="h" xOffset="-8"/>
  </outline>
</glyph>
<glyph name="iogonek" format="1">
  <advance width="231"/>
  <unicode hex="012F"/>
  <outline>
    <contour>
      <point x="89" y="0" type="line"/>
      <point x="42" y="-67"/>
      <point x="22" y="-104"/>
      <point x="22" y="-135" type="curve" smooth="yes"/>
      <point x="22" y="-172"/>
      <point x="46" y="-197"/>
      <point x="84" y="-197" type="curve" smooth="yes"/>
      <point x="111" y="-197"/>
      <point x="131" y="-184"/>
      <point x="149" y="-158" type="curve"/>
      <point x="138" y="-126" type="line"/>
      <point x="133" y="-126" type="line"/>
      <point x="122" y="-147"/>
      <point x="108" y="-159"/>
      <point x="90" y="-159" type="curve" smooth="yes"/>
      <point x="71" y="-159"/>
      <point x="59" y="-148"/>
      <point x="59" y="-128" type="curve" smooth="yes"/>
      <point x="59" y="-105"/>
      <point x="77" y="-70"/>
      <point x="125" y="0" type="curve"/>
    </contour>
    <component base="dotlessi"/>
    <component base="dotaccent" xOffset="-3"/>
  </outline>
</glyph>
<glyph name="dotlessi" format="1">
  <advance width="231"/>
  <unicode hex="0131"/>
  <outline>
    <contour>
      <point x="89" y="451" type="line"/>
      <point x="92" y="195" type="line"/>
      <point x="89" y="0" type="line"/>
      <point x="140" y="0" type="line"/>
      <point x="137" y="198" type="line"/>
      <point x="141" y="457" type="line"/>
    </contour>
    <contour>
      <point x="115" y="0" type="move" name="bottom"/>
    </contour>
    <contour>
      <point x="166" y="42" type="move" name="ogonek"/>
    </contour>
    <contour>
      <point x="116" y="455" type="move" name="top"/>
    </contour>
  </outline>
</glyph>
<glyph name="kgreenlandic" format="1">
  <advance width="436"/>
  <unicode hex="0138"/>
  <outline>
    <contour>
      <point x="351" y="455" type="line"/>
      <point x="324" y="418" type="line"/>
      <point x="164" y="245" type="line"/>
      <point x="164" y="239" type="line"/>
      <point x="231" y="155"/>
      <point x="302" y="73"/>
      <point x="375" y="-6" type="curve"/>
      <point x="382" y="-8" type="line"/>
      <point x="397" y="-5"/>
      <point x="413" y="-3"/>
      <point x="427" y="3" type="curve"/>
      <point x="427" y="10" type="line"/>
      <point x="356" y="84"/>
      <point x="284" y="164"/>
      <point x="218" y="245" type="curve"/>
      <point x="413" y="455" type="line"/>
    </contour>
    <component base="dotlessi"/>
    <contour>
      <point x="246" y="0" type="move" name="bottom"/>
    </contour>
  </outline>
</glyph>
<glyph name="eng" format="1">
  <advance width="518"/>
  <unicode hex="014B"/>
  <outline>
    <contour>
      <point x="240" y="456"/>
      <point x="189" y="428"/>
      <point x="144" y="384" type="curve"/>
      <point x="133" y="384" type="line"/>
      <point x="134" y="328" type="line"/>
      <point x="182" y="384"/>
      <point x="235" y="416"/>
      <point x="285" y="416" type="curve" smooth="yes"/>
      <point x="346" y="416"/>
      <point x="379" y="378"/>
      <point x="379" y="315" type="curve" smooth="yes"/>
      <point x="379" y="12" type="line" smooth="yes"/>
      <point x="379" y="-74"/>
      <point x="358" y="-115"/>
      <point x="292" y="-161" type="curve"/>
      <point x="292" y="-169" type="line"/>
      <point x="313" y="-193" type="line"/>
      <point x="399" y="-139"/>
      <point x="428" y="-89"/>
      <point x="428" y="16" type="curve" smooth="yes"/>
      <point x="426" y="198" type="line"/>
      <point x="427" y="325" type="line" smooth="yes"/>
      <point x="427" y="411"/>
      <point x="378" y="461"/>
      <point x="284" y="461" type="curve" smooth="yes"/>
    </contour>
    <contour>
      <point x="89" y="451" type="line"/>
      <point x="91" y="195" type="line"/>
      <point x="89" y="0" type="line"/>
      <point x="140" y="0" type="line"/>
      <point x="138" y="198" type="line"/>
      <point x="139" y="457" type="line"/>
    </contour>
  </outline>
</glyph>
<glyph name="OE" format="1">
  <advance width="843"/>
  <unicode hex="0152"/>
  <outline>
    <contour>
      <point x="157" y="651"/>
      <point x="43" y="527"/>
      <point x="43" y="317" type="curve" smooth="yes"/>
      <point x="43" y="110"/>
      <point x="152" y="-12"/>
      <point x="344" y="-12" type="curve" smooth="yes"/>
      <point x="400" y="-12"/>
      <point x="460" y="0"/>
      <point x="518" y="0" type="curve" smooth="yes"/>
      <point x="811" y="0" type="line"/>
      <point x="817" y="41" type="line"/>
      <point x="812" y="47" type="line"/>
      <point x="658" y="44" type="line"/>
      <point x="526" y="45" type="line"/>
      <point x="525" y="192" type="line"/>
      <point x="525" y="307" type="line"/>
      <point x="639" y="307" type="line"/>
      <point x="757" y="306" type="line"/>
      <point x="762" y="347" type="line"/>
      <point x="758" y="352" type="line"/>
      <point x="643" y="351" type="line"/>
      <point x="526" y="352" type="line"/>
      <point x="527" y="594" type="line"/>
      <point x="670" y="594" type="line"/>
      <point x="809" y="592" type="line"/>
      <point x="815" y="633" type="line"/>
      <point x="810" y="639" type="line"/>
      <point x="518" y="639" type="line" smooth="yes"/>
      <point x="463" y="639"/>
      <point x="415" y="651"/>
      <point x="357" y="651" type="curve" smooth="yes"/>
    </contour>
    <contour>
      <point x="396" y="606"/>
      <point x="444" y="599"/>
      <point x="460" y="594" type="curve" smooth="yes"/>
      <point x="470" y="591"/>
      <point x="474" y="584"/>
      <point x="474" y="559" type="curve" smooth="yes"/>
      <point x="477" y="73" type="line" smooth="yes"/>
      <point x="477" y="54"/>
      <point x="471" y="48"/>
      <point x="450" y="43" type="curve" smooth="yes"/>
      <point x="433" y="39"/>
      <point x="387" y="33"/>
      <point x="350" y="33" type="curve" smooth="yes"/>
      <point x="180" y="33"/>
      <point x="95" y="135"/>
      <point x="95" y="318" type="curve" smooth="yes"/>
      <point x="95" y="504"/>
      <point x="186" y="606"/>
      <point x="353" y="606" type="curve" smooth="yes"/>
    </contour>
    <contour>
      <point x="552" y="639" type="move" name="top"/>
    </contour>
  </outline>
</glyph>
<glyph name="Tbar" format="1">
  <advance width="483"/>
  <unicode hex="0166"/>
  <outline>
    <contour>
      <point x="120" y="348" type="line"/>
      <point x="117" y="316" type="line"/>
      <point x="121" y="312" type="line"/>
      <point x="373" y="312" type="line"/>
      <point x="376" y="343" type="line"/>
      <point x="371" y="348" type="line"/>
    </contour>
    <component base="T"/>
  </outline>
</glyph>
<glyph name="uogonek" format="1">
  <advance width="510"/>
  <unicode hex="0173"/>
  <outline>
    <contour>
      <point x="440" y="14" type="line"/>
      <point x="361" y="-69"/>
      <point x="342" y="-99"/>
      <point x="342" y="-132" type="curve" smooth="yes"/>
      <point x="342" y="-173"/>
      <point x="373" y="-197"/>
      <point x="408" y="-197" type="curve" smooth="yes"/>
      <point x="442" y="-197"/>
      <point x="469" y="-176"/>
      <point x="493" y="-144" type="curve"/>
      <point x="481" y="-115" type="line"/>
      <point x="478" y="-115" type="line"/>
      <point x="459" y="-143"/>
      <point x="438" y="-159"/>
      <point x="415" y="-159" type="curve" smooth="yes"/>
      <point x="396" y="-159"/>
      <point x="380" y="-149"/>
      <point x="380" y="-124" type="curve" smooth="yes"/>
      <point x="380" y="-100"/>
      <point x="397" y="-74"/>
      <point x="475" y="12" type="curve"/>
    </contour>
    <component base="u"/>
  </outline>
</glyph>
<glyph name="florin" format="1">
  <advance width="257"/>
  <unicode hex="0192"/>
  <outline>
    <contour>
      <point x="197" y="613"/>
      <point x="141" y="562"/>
      <point x="130" y="469" type="curve" smooth="yes"/>
      <point x="118" y="370" type="line"/>
      <point x="49" y="370" type="line"/>
      <point x="45" y="341" type="line"/>
      <point x="50" y="337" type="line"/>
      <point x="114" y="337" type="line"/>
      <point x="95" y="182" type="line"/>
      <point x="77" y="42" type="line" smooth="yes"/>
      <point x="68" y="-32"/>
      <point x="48" y="-67"/>
      <point x="-12" y="-122" type="curve"/>
      <point x="-13" y="-128" type="line"/>
      <point x="10" y="-149" type="line"/>
      <point x="85" y="-86"/>
      <point x="110" y="-45"/>
      <point x="120" y="44" type="curve" smooth="yes"/>
      <point x="137" y="185" type="line"/>
      <point x="157" y="337" type="line"/>
      <point x="273" y="337" type="line"/>
      <point x="276" y="365" type="line"/>
      <point x="273" y="370" type="line"/>
      <point x="161" y="370" type="line"/>
      <point x="175" y="474" type="line" smooth="yes"/>
      <point x="183" y="537"/>
      <point x="213" y="577"/>
      <point x="281" y="577" type="curve" smooth="yes"/>
      <point x="297" y="577"/>
      <point x="318" y="575"/>
      <point x="339" y="566" type="curve"/>
      <point x="344" y="569" type="line"/>
      <point x="353" y="605" type="line"/>
      <point x="327" y="610"/>
      <point x="306" y="613"/>
      <point x="285" y="613" type="curve" smooth="yes"/>
    </contour>
  </outline>
</glyph>
<glyph name="Aringacute" format="1">
  <advance width="567"/>
  <unicode hex="01FA"/>
  <outline>
    <contour>
      <point x="262" y="636" type="line"/>
      <point x="16" y="0" type="line" smooth="yes"/>
      <point x="70" y="0" type="line"/>
      <point x="85" y="56" type="line"/>
      <point x="285" y="576" type="line"/>
      <point x="291" y="576" type="line"/>
      <point x="474" y="54" type="line"/>
      <point x="487" y="0" type="line"/>
      <point x="542" y="0" type="line"/>
      <point x="317" y="636" type="line"/>
    </contour>
    <contour>
      <point x="280" y="236" type="line"/>
      <point x="125" y="237" type="line"/>
      <point x="122" y="191" type="line"/>
      <point x="275" y="193" type="line"/>
      <point x="442" y="191" type="line"/>
      <point x="439" y="237" type="line"/>
    </contour>
    <contour>
      <point x="302" y="296" type="move"/>
    </contour>
    <component base="ringacute" xOffset="96" yOffset="98"/>
  </outline>
</glyph>
<glyph name="caron" format="1">
  <advance width="390"/>
  <unicode hex="02C7"/>
  <outline>
    <contour>
      <point x="293" y="674" type="line"/>
      <point x="257" y="636"/>
      <point x="225" y="601"/>
      <point x="194" y="564" type="curve"/>
      <point x="164" y="601"/>
      <point x="132" y="636"/>
      <point x="95" y="674" type="curve"/>
      <point x="88" y="674" type="line"/>
      <point x="72" y="651" type="line"/>
      <point x="109" y="612"/>
      <point x="145" y="569"/>
      <point x="184" y="521" type="curve"/>
      <point x="205" y="521" type="line"/>
      <point x="245" y="571"/>
      <point x="281" y="613"/>
      <point x="317" y="651" type="curve"/>
      <point x="301" y="674" type="line"/>
    </contour>
    <contour>
      <point x="195" y="455" type="move" name="_top"/>
    </contour>
  </outline>
</glyph>
<glyph name="uni1E9E" format="1">
  <advance width="613"/>
  <unicode hex="1E9E"/>
  <outline>
    <contour>
      <point x="171" y="643"/>
      <point x="79" y="557"/>
      <point x="80" y="428" type="curve" smooth="yes"/>
      <point x="82" y="190" type="line"/>
      <point x="79" y="0" type="line"/>
      <point x="131" y="0" type="line"/>
      <point x="129" y="198" type="line"/>
      <point x="130" y="429" type="line" smooth="yes"/>
      <point x="131" y="533"/>
      <point x="200" y="599"/>
      <point x="311" y="599" type="curve" smooth="yes"/>
      <point x="362" y="599"/>
      <point x="411" y="587"/>
      <point x="469" y="560" type="curve"/>
      <point x="288" y="339" type="line"/>
      <point x="293" y="322" type="line"/>
      <point x="446" y="295"/>
      <point x="525" y="249"/>
      <point x="525" y="164" type="curve" smooth="yes"/>
      <point x="525" y="93"/>
      <point x="471" y="38"/>
      <point x="391" y="38" type="curve" smooth="yes"/>
      <point x="343" y="38"/>
      <point x="283" y="58"/>
      <point x="239" y="96" type="curve"/>
      <point x="231" y="93" type="line"/>
      <point x="225" y="40" type="line"/>
      <point x="273" y="10"/>
      <point x="336" y="-5"/>
      <point x="388" y="-5" type="curve" smooth="yes"/>
      <point x="494" y="-5"/>
      <point x="576" y="62"/>
      <point x="576" y="168" type="curve" smooth="yes"/>
      <point x="576" y="272"/>
      <point x="497" y="326"/>
      <point x="355" y="355" type="curve"/>
      <point x="534" y="571" type="line"/>
      <point x="531" y="585" type="line"/>
      <point x="454" y="622"/>
      <point x="385" y="643"/>
      <point x="312" y="643" type="curve" smooth="yes"/>
    </contour>
  </outline>
</glyph>
<glyph name="ohorngrave" format="1">
  <advance width="489"/>
  <unicode hex="1EDD"/>
  <outline>
    <contour>
      <point x="141" y="683" type="line"/>
      <point x="121" y="656" type="line"/>
      <point x="122" y="649" type="line"/>
      <point x="176" y="602"/>
      <point x="226" y="561"/>
      <point x="280" y="518" type="curve"/>
      <point x="287" y="519" type="line"/>
      <point x="304" y="543" type="line"/>
      <point x="253" y="585"/>
      <point x="204" y="629"/>
      <point x="149" y="684" type="curve"/>
    </contour>
    <component base="ohorn"/>
  </outline>
</glyph>
<glyph name="daggerdbl" format="1">
  <advance width="472"/>
  <unicode hex="2021"/>
  <outline>
    <contour>
      <point x="216" y="586" type="line"/>
      <point x="216" y="284" type="line"/>
      <point x="216" y="-89" type="line"/>
      <point x="220" y="-94" type="line"/>
      <point x="255" y="-93" type="line"/>
      <point x="255" y="286" type="line"/>
      <point x="256" y="586" type="line"/>
      <point x="252" y="589" type="line"/>
    </contour>
    <contour>
      <point x="47" y="130" type="line"/>
      <point x="44" y="96" type="line"/>
      <point x="48" y="91" type="line"/>
      <point x="427" y="91" type="line"/>
      <point x="430" y="126" type="line"/>
      <point x="425" y="130" type="line"/>
    </contour>
    <contour>
      <point x="47" y="402" type="line"/>
      <point x="44" y="368" type="line"/>
      <point x="48" y="363" type="line"/>
      <point x="427" y="363" type="line"/>
      <point x="430" y="397" type="line"/>
      <point x="425" y="402" type="line"/>
    </contour>
  </outline>
</glyph>
<glyph name="product" format="1">
  <advance width="650"/>
  <unicode hex="220F"/>
  <outline>
    <contour>
      <point x="63" y="639" type="line"/>
      <point x="58" y="600" type="line"/>
      <point x="62" y="594" type="line"/>
      <point x="172" y="595" type="line"/>
      <point x="481" y="595" type="line"/>
      <point x="587" y="594" type="line"/>
      <point x="592" y="633" type="line"/>
      <point x="588" y="639" type="line"/>
    </contour>
    <component base="I" xOffset="10"/>
    <component base="I" xOffset="387"/>
  </outline>
</glyph>
<glyph name="D.ss01" format="1">
  <advance width="563"/>
  <outline>
    <contour>
      <point x="-100" y="467" type="line"/>
      <point x="663" y="467" type="line"/>
      <point x="663" y="495" type="line"/>
      <point x="-100" y="495" type="line"/>
    </contour>
    <contour>
      <point x="-100" y="0" type="line"/>
      <point x="663" y="0" type="line"/>
      <point x="663" y="28" type="line"/>
      <point x="-100" y="28" type="line"/>
    </contour>
    <contour>
      <point x="103" y="488" type="line"/>
      <point x="142" y="446" type="line"/>
      <point x="164" y="448"/>
      <point x="259" y="450"/>
      <point x="277" y="450" type="curve" smooth="yes"/>
      <point x="396" y="450"/>
      <point x="458" y="385"/>
      <point x="458" y="254" type="curve" smooth="yes"/>
      <point x="458" y="113"/>
      <point x="391" y="41"/>
      <point x="273" y="41" type="curve" smooth="yes"/>
      <point x="252" y="41"/>
      <point x="167" y="44"/>
      <point x="141" y="46" type="curve"/>
      <point x="103" y="5" type="line"/>
      <point x="144" y="2"/>
      <point x="238" y="0"/>
      <point x="266" y="0" type="curve"/>
      <point x="421" y="0"/>
      <point x="507" y="94"/>
      <point x="507" y="263" type="curve" smooth="yes"/>
      <point x="507" y="410"/>
      <point x="426" y="492"/>
      <point x="281" y="492" type="curve"/>
    </contour>
    <contour>
      <point x="103" y="488" type="line"/>
      <point x="104" y="151" type="line"/>
      <point x="103" y="5" type="line"/>
      <point x="150" y="5" type="line"/>
      <point x="149" y="155" type="line"/>
      <point x="150" y="488" type="line"/>
    </contour>
    <contour>
      <point x="268" y="247" type="move" name="center"/>
    </contour>
    <contour>
      <point x="266" y="488" type="move" name="top"/>
    </contour>
  </outline>
</glyph>
<glyph name="I.ss01" format="1">
  <advance width="249"/>
  <outline>
    <contour>
      <point x="-100" y="467" type="line"/>
      <point x="349" y="467" type="line"/>
      <point x="349" y="495" type="line"/>
      <point x="-100" y="495" type="line"/>
    </contour>
    <contour>
      <point x="-100" y="0" type="line"/>
      <point x="349" y="0" type="line"/>
      <point x="349" y="28" type="line"/>
      <point x="-100" y="28" type="line"/>
    </contour>
    <contour>
      <point x="98" y="492" type="line"/>
      <point x="99" y="151" type="line"/>
      <point x="98" y="2" type="line"/>
      <point x="147" y="2" type="line"/>
      <point x="145" y="154" type="line"/>
      <point x="147" y="492" type="line"/>
    </contour>
    <contour>
      <point x="183" y="10" type="move" name="ogonek"/>
    </contour>
    <contour>
      <point x="126" y="492" type="move" name="top"/>
    </contour>
  </outline>
</glyph>
<glyph name="Q.corta" format="1">
  <advance width="634"/>
  <outline>
    <contour>
      <point x="143" y="645"/>
      <point x="43" y="527"/>
      <point x="43" y="316" type="curve" smooth="yes"/>
      <point x="43" y="110"/>
      <point x="138" y="-6"/>
      <point x="310" y="-6" type="curve" smooth="yes"/>
      <point x="489" y="-6"/>
      <point x="589" y="115"/>
      <point x="589" y="329" type="curve" smooth="yes"/>
      <point x="589" y="533"/>
      <point x="494" y="645"/>
      <point x="323" y="645" type="curve"/>
    </contour>
    <contour>
      <point x="328" y="1" type="line"/>
      <point x="396" y="-78"/>
      <point x="484" y="-137"/>
      <point x="604" y="-186" type="curve"/>
      <point x="611" y="-185" type="line"/>
      <point x="618" y="-178"/>
      <point x="626" y="-166"/>
      <point x="634" y="-150" type="curve"/>
      <point x="632" y="-142" type="line"/>
      <point x="513" y="-99"/>
      <point x="429" y="-48"/>
      <point x="367" y="20" type="curve"/>
    </contour>
    <contour>
      <point x="460" y="600"/>
      <point x="535" y="506"/>
      <point x="535" y="326" type="curve" smooth="yes"/>
      <point x="535" y="137"/>
      <point x="456" y="38"/>
      <point x="312" y="38" type="curve" smooth="yes"/>
      <point x="170" y="38"/>
      <point x="95" y="135"/>
      <point x="95" y="319" type="curve" smooth="yes"/>
      <point x="95" y="504"/>
      <point x="171" y="600"/>
      <point x="318" y="600" type="curve" smooth="yes"/>
    </contour>
  </outline>
</glyph>
<glyph name="brevegrave" format="1">
  <advance width="390"/>
  <outline>
    <contour>
      <point x="109" y="722" type="line"/>
      <point x="110" y="716" type="line"/>
      <point x="138" y="684"/>
      <point x="168" y="654"/>
      <point x="199" y="622" type="curve"/>
      <point x="206" y="623" type="line"/>
      <point x="226" y="640" type="line"/>
      <point x="196" y="673"/>
      <point x="169" y="706"/>
      <point x="140" y="740" type="curve"/>
      <point x="134" y="740" type="line"/>
    </contour>
    <component base="breve.cap" yOffset="-20"/>
    <contour>
      <point x="195" y="455" type="move" name="_top"/>
    </contour>
  </outline>
</glyph>
<glyph name="brevetilde" format="1">
  <advance width="390"/>
  <outline>
    <component base="breve.cap" xOffset="3" yOffset="-13" xScale="0.99" yScale="0.99"/>
    <component base="tilde" xOffset="14" yOffset="115" xScale="0.94" yScale="0.98"/>
    <contour>
      <point x="195" y="455" type="move" name="_top"/>
    </contour>
  </outline>
</glyph>
<glyph name="caron.alt" format="1">
  <advance width="390"/>
  <outline>
    <contour>
      <point x="178" y="670" type="line"/>
      <point x="170" y="509" type="line"/>
      <point x="175" y="505" type="line"/>
      <point x="203" y="508" type="line"/>
      <point x="221" y="667" type="line"/>
      <point x="216" y="673" type="line"/>
    </contour>
    <contour>
      <point x="195" y="455" type="move" name="_top"/>
    </contour>
  </outline>
</glyph>
<glyph name="circumflexhookabove" format="1">
  <advance width="390"/>
  <outline>
    <component base="circumflex.cap" yOffset="-20"/>
    <component base="hookabove" xOffset="101" yOffset="109" xScale="0.95" yScale="0.95"/>
    <contour>
      <point x="195" y="455" type="move" name="_top"/>
    </contour>
  </outline>
</glyph>
<glyph name="dotlessi.sc" format="1">
  <advance width="249"/>
  <outline>
    <component base="i.sc"/>
    <contour>
      <point x="183" y="8" type="move" name="ogonek"/>
    </contour>
    <contour>
      <point x="126" y="495" type="move" name="top"/>
    </contour>
  </outline>
</glyph>
<glyph name="eight.tosf" format="1">
  <advance width="475"/>
  <outline>
    <contour>
      <point x="148" y="590"/>
      <point x="79" y="536"/>
      <point x="79" y="443" type="curve" smooth="yes"/>
      <point x="79" y="366"/>
      <point x="130" y="329"/>
      <point x="188" y="303" type="curve"/>
      <point x="188" y="299" type="line"/>
      <point x="121" y="274"/>
      <point x="53" y="231"/>
      <point x="53" y="144" type="curve" smooth="yes"/>
      <point x="53" y="55"/>
      <point x="119" y="-5"/>
      <point x="227" y="-5" type="curve" smooth="yes"/>
      <point x="340" y="-5"/>
      <point x="413" y="57"/>
      <point x="413" y="155" type="curve" smooth="yes"/>
      <point x="413" y="244"/>
      <point x="345" y="277"/>
      <point x="278" y="305" type="curve"/>
      <point x="278" y="309" type="line"/>
      <point x="341" y="335"/>
      <point x="394" y="375"/>
      <point x="394" y="454" type="curve" smooth="yes"/>
      <point x="394" y="539"/>
      <point x="337" y="590"/>
      <point x="244" y="590" type="curve" smooth="yes"/>
    </contour>
    <contour>
      <point x="299" y="254"/>
      <point x="369" y="229"/>
      <point x="369" y="151" type="curve" smooth="yes"/>
      <point x="369" y="82"/>
      <point x="317" y="34"/>
      <point x="231" y="34" type="curve" smooth="yes"/>
      <point x="150" y="34"/>
      <point x="99" y="80"/>
      <point x="99" y="147" type="curve" smooth="yes"/>
      <point x="99" y="228"/>
      <point x="167" y="260"/>
      <point x="229" y="283" type="curve"/>
    </contour>
    <contour>
      <point x="309" y="551"/>
      <point x="350" y="513"/>
      <point x="350" y="451" type="curve" smooth="yes"/>
      <point x="350" y="377"/>
      <point x="294" y="345"/>
      <point x="236" y="324" type="curve"/>
      <point x="177" y="348"/>
      <point x="123" y="375"/>
      <point x="123" y="444" type="curve" smooth="yes"/>
      <point x="123" y="510"/>
      <point x="171" y="551"/>
      <point x="242" y="551" type="curve" smooth="yes"/>
    </contour>
  </outline>
</glyph>
<glyph name="f.f" format="1">
  <advance width="292"/>
  <outline>
    <contour>
      <point x="163" y="691"/>
      <point x="112" y="634"/>
      <point x="112" y="530" type="curve" smooth="yes"/>
      <point x="114" y="192" type="line"/>
      <point x="111" y="0" type="line"/>
      <point x="162" y="0" type="line"/>
      <point x="159" y="197" type="line"/>
      <point x="162" y="536" type="line" smooth="yes"/>
      <point x="162" y="611"/>
      <point x="193" y="651"/>
      <point x="250" y="651" type="curve" smooth="yes"/>
      <point x="276" y="651"/>
      <point x="300" y="647"/>
      <point x="323" y="635" type="curve"/>
      <point x="329" y="638" type="line"/>
      <point x="335" y="680" type="line"/>
      <point x="307" y="688"/>
      <point x="279" y="691"/>
      <point x="254" y="691" type="curve" smooth="yes"/>
    </contour>
    <contour>
      <point x="45" y="454" type="line"/>
      <point x="41" y="422" type="line"/>
      <point x="45" y="417" type="line"/>
      <point x="413" y="417" type="line"/>
      <point x="417" y="449" type="line"/>
      <point x="414" y="454" type="line"/>
    </contour>
    <contour>
      <point x="172" y="0" type="move" name="bottom"/>
    </contour>
    <contour>
      <point x="280" y="749" type="move" name="top"/>
    </contour>
  </outline>
</glyph>
<glyph name="f.l" format="1">
  <advance width="302"/>
  <outline>
    <contour>
      <point x="175" y="712"/>
      <point x="111" y="655"/>
      <point x="112" y="543" type="curve" smooth="yes"/>
      <point x="114" y="192" type="line"/>
      <point x="111" y="0" type="line"/>
      <point x="162" y="0" type="line"/>
      <point x="159" y="195" type="line"/>
      <point x="161" y="549" type="line" smooth="yes"/>
      <point x="162" y="633"/>
      <point x="206" y="671"/>
      <point x="287" y="671" type="curve" smooth="yes"/>
      <point x="326" y="671"/>
      <point x="365" y="663"/>
      <point x="408" y="648" type="curve"/>
      <point x="412" y="652" type="line"/>
      <point x="421" y="694" type="line"/>
      <point x="373" y="706"/>
      <point x="329" y="712"/>
      <point x="288" y="712" type="curve" smooth="yes"/>
    </contour>
    <contour>
      <point x="45" y="454" type="line"/>
      <point x="41" y="422" type="line"/>
      <point x="45" y="417" type="line"/>
      <point x="283" y="417" type="line"/>
      <point x="287" y="449" type="line"/>
      <point x="284" y="454" type="line"/>
    </contour>
  </outline>
</glyph>
<glyph name="five.dnom" format="1">
  <advance width="297"/>
  <outline>
    <contour>
      <point x="200" y="374" type="line"/>
      <point x="105" y="374" type="line"/>
      <point x="70" y="375" type="line"/>
      <point x="63" y="367" type="line"/>
      <point x="60" y="206" type="line"/>
      <point x="63" y="200" type="line"/>
      <point x="120" y="189" type="line" smooth="yes"/>
      <point x="181" y="176"/>
      <point x="209" y="154"/>
      <point x="209" y="118" type="curve" smooth="yes"/>
      <point x="209" y="66"/>
      <point x="165" y="32"/>
      <point x="97" y="32" type="curve" smooth="yes"/>
      <point x="79" y="32"/>
      <point x="58" y="34"/>
      <point x="37" y="39" type="curve"/>
      <point x="33" y="35" type="line"/>
      <point x="37" y="2" type="line"/>
      <point x="56" y="-1"/>
      <point x="80" y="-4"/>
      <point x="96" y="-4" type="curve" smooth="yes"/>
      <point x="191" y="-4"/>
      <point x="254" y="45"/>
      <point x="254" y="121" type="curve" smooth="yes"/>
      <point x="254" y="175"/>
      <point x="218" y="207"/>
      <point x="140" y="224" type="curve" smooth="yes"/>
      <point x="97" y="234" type="line"/>
      <point x="100" y="337" type="line"/>
      <point x="207" y="337" type="line"/>
      <point x="248" y="334" type="line"/>
      <point x="252" y="337" type="line"/>
      <point x="256" y="373" type="line"/>
      <point x="254" y="376" type="line"/>
    </contour>
  </outline>
</glyph>
<glyph name="five.lf" format="1">
  <advance width="417"/>
  <outline>
    <contour>
      <point x="282" y="586" type="line"/>
      <point x="147" y="586" type="line"/>
      <point x="95" y="587" type="line"/>
      <point x="84" y="578" type="line"/>
      <point x="79" y="331" type="line"/>
      <point x="85" y="324" type="line"/>
      <point x="165" y="308" type="line" smooth="yes"/>
      <point x="267" y="285"/>
      <point x="311" y="247"/>
      <point x="311" y="183" type="curve" smooth="yes"/>
      <point x="311" y="95"/>
      <point x="243" y="37"/>
      <point x="137" y="37" type="curve" smooth="yes"/>
      <point x="110" y="37"/>
      <point x="79" y="42"/>
      <point x="44" y="53" type="curve"/>
      <point x="39" y="48" type="line"/>
      <point x="44" y="3" type="line"/>
      <point x="73" y="-2"/>
      <point x="103" y="-5"/>
      <point x="128" y="-5" type="curve" smooth="yes"/>
      <point x="266" y="-5"/>
      <point x="360" y="72"/>
      <point x="360" y="190" type="curve" smooth="yes"/>
      <point x="360" y="270"/>
      <point x="312" y="321"/>
      <point x="186" y="348" type="curve" smooth="yes"/>
      <point x="122" y="362" type="line"/>
      <point x="127" y="542" type="line"/>
      <point x="297" y="542" type="line"/>
      <point x="355" y="538" type="line"/>
      <point x="359" y="542" type="line"/>
      <point x="365" y="585" type="line"/>
      <point x="361" y="588" type="line"/>
    </contour>
  </outline>
</glyph>
<glyph name="four.lf" format="1">
  <advance width="486"/>
  <outline>
    <contour>
      <point x="289" y="586" type="line"/>
      <point x="34" y="220" type="line"/>
      <point x="34" y="184" type="line"/>
      <point x="38" y="179" type="line"/>
      <point x="93" y="180" type="line"/>
      <point x="354" y="180" type="line"/>
      <point x="435" y="179" type="line"/>
      <point x="440" y="216" type="line"/>
      <point x="435" y="222" type="line"/>
      <point x="83" y="222" type="line"/>
      <point x="288" y="517" type="line"/>
      <point x="293" y="517" type="line"/>
      <point x="293" y="208" type="line"/>
      <point x="292" y="0" type="line"/>
      <point x="295" y="-4" type="line"/>
      <point x="335" y="0" type="line"/>
      <point x="338" y="5" type="line"/>
      <point x="336" y="203" type="line"/>
      <point x="337" y="586" type="line"/>
    </contour>
  </outline>
</glyph>
<glyph name="four.sinf" format="1">
  <advance width="344"/>
  <outline>
    <contour>
      <point x="197" y="254" type="line"/>
      <point x="28" y="23" type="line"/>
      <point x="28" y="-8" type="line"/>
      <point x="32" y="-13" type="line"/>
      <point x="74" y="-11" type="line"/>
      <point x="244" y="-11" type="line"/>
      <point x="303" y="-13" type="line"/>
      <point x="307" y="21" type="line"/>
      <point x="303" y="26" type="line"/>
      <point x="71" y="26" type="line"/>
      <point x="196" y="197" type="line"/>
      <point x="200" y="197" type="line"/>
      <point x="200" y="14" type="line"/>
      <point x="199" y="-120" type="line"/>
      <point x="202" y="-122" type="line"/>
      <point x="239" y="-120" type="line"/>
      <point x="242" y="-116" type="line"/>
      <point x="239" y="8" type="line"/>
      <point x="240" y="254" type="line"/>
    </contour>
  </outline>
</glyph>
<glyph name="four.tf" format="1">
  <advance width="475"/>
  <outline>
    <contour>
      <point x="282" y="586" type="line"/>
      <point x="32" y="220" type="line"/>
      <point x="32" y="184" type="line"/>
      <point x="36" y="179" type="line"/>
      <point x="90" y="180" type="line"/>
      <point x="346" y="180" type="line"/>
      <point x="427" y="179" type="line"/>
      <point x="431" y="216" type="line"/>
      <point x="427" y="222" type="line"/>
      <point x="81" y="222" type="line"/>
      <point x="280" y="517" type="line"/>
      <point x="286" y="517" type="line"/>
      <point x="286" y="208" type="line"/>
      <point x="284" y="0" type="line"/>
      <point x="288" y="-4" type="line"/>
      <point x="328" y="0" type="line"/>
      <point x="331" y="5" type="line"/>
      <point x="329" y="203" type="line"/>
      <point x="330" y="586" type="line"/>
    </contour>
  </outline>
</glyph>
<glyph name="four.tosf" format="1">
  <advance width="475"/>
  <outline>
    <contour>
      <point x="288" y="495" type="line"/>
      <point x="30" y="127" type="line"/>
      <point x="30" y="92" type="line"/>
      <point x="34" y="86" type="line"/>
      <point x="89" y="87" type="line"/>
      <point x="352" y="87" type="line"/>
      <point x="436" y="86" type="line"/>
      <point x="440" y="124" type="line"/>
      <point x="435" y="130" type="line"/>
      <point x="79" y="130" type="line"/>
      <point x="286" y="425" type="line"/>
      <point x="291" y="425" type="line"/>
      <point x="292" y="115" type="line"/>
      <point x="290" y="-93" type="line"/>
      <point x="294" y="-98" type="line"/>
      <point x="333" y="-94" type="line"/>
      <point x="337" y="-89" type="line"/>
      <point x="335" y="110" type="line"/>
      <point x="336" y="495" type="line"/>
    </contour>
  </outline>
</glyph>
<glyph name="hungarumlaut.cap" format="1">
  <advance width="390"/>
  <outline>
    <contour>
      <point x="211" y="536" type="line"/>
      <point x="218" y="536" type="line"/>
      <point x="257" y="572"/>
      <point x="296" y="607"/>
      <point x="334" y="644" type="curve"/>
      <point x="334" y="651" type="line"/>
      <point x="310" y="669" type="line"/>
      <point x="304" y="669" type="line"/>
      <point x="267" y="630"/>
      <point x="230" y="593"/>
      <point x="192" y="555" type="curve"/>
    </contour>
    <contour>
      <point x="74" y="536" type="line"/>
      <point x="81" y="536" type="line"/>
      <point x="121" y="572"/>
      <point x="159" y="607"/>
      <point x="197" y="644" type="curve"/>
      <point x="197" y="651" type="line"/>
      <point x="173" y="669" type="line"/>
      <point x="167" y="669" type="line"/>
      <point x="131" y="630"/>
      <point x="93" y="593"/>
      <point x="55" y="555" type="curve"/>
    </contour>
    <contour>
      <point x="168" y="455" type="move" name="_top"/>
    </contour>
  </outline>
</glyph>
<glyph name="kgreenlandic.sc" format="1">
  <advance width="474"/>
  <outline>
    <component base="k.sc"/>
    <contour>
      <point x="232" y="0" type="move" name="bottom"/>
    </contour>
    <contour>
      <point x="219" y="495" type="move" name="top"/>
    </contour>
  </outline>
</glyph>
<glyph name="macron.i" format="1">
  <advance width="390"/>
  <outline>
    <contour>
      <point x="88" y="621" type="line"/>
      <point x="85" y="589" type="line"/>
      <point x="89" y="584" type="line"/>
      <point x="302" y="584" type="line"/>
      <point x="305" y="617" type="line"/>
      <point x="300" y="621" type="line"/>
    </contour>
    <contour>
      <point x="195" y="455" type="move" name="_top"/>
    </contour>
  </outline>
</glyph>
<glyph name="nine.dnom" format="1">
  <advance width="331"/>
  <outline>
    <contour>
      <point x="86" y="380"/>
      <point x="43" y="331"/>
      <point x="43" y="260" type="curve"/>
      <point x="43" y="196"/>
      <point x="82" y="153"/>
      <point x="149" y="153" type="curve" smooth="yes"/>
      <point x="182" y="153"/>
      <point x="212" y="165"/>
      <point x="237" y="182" type="curve"/>
      <point x="247" y="173" type="line"/>
      <point x="254" y="224" type="line"/>
      <point x="226" y="201"/>
      <point x="195" y="188"/>
      <point x="161" y="188" type="curve" smooth="yes"/>
      <point x="113" y="188"/>
      <point x="86" y="214"/>
      <point x="86" y="264" type="curve"/>
      <point x="86" y="318"/>
      <point x="115" y="348"/>
      <point x="169" y="348" type="curve"/>
      <point x="224" y="348"/>
      <point x="250" y="309"/>
      <point x="250" y="240" type="curve"/>
      <point x="250" y="135"/>
      <point x="192" y="68"/>
      <point x="65" y="23" type="curve"/>
      <point x="65" y="17" type="line"/>
      <point x="92" y="-4" type="line"/>
      <point x="96" y="-4" type="line"/>
      <point x="221" y="43"/>
      <point x="292" y="131"/>
      <point x="292" y="240" type="curve"/>
      <point x="292" y="329"/>
      <point x="248" y="380"/>
      <point x="170" y="380" type="curve"/>
    </contour>
  </outline>
</glyph>
<glyph name="o.sups" format="1">
  <advance width="334"/>
  <outline>
    <contour>
      <point x="84" y="646"/>
      <point x="35" y="589"/>
      <point x="35" y="489" type="curve" smooth="yes"/>
      <point x="35" y="393"/>
      <point x="82" y="338"/>
      <point x="164" y="338" type="curve" smooth="yes"/>
      <point x="251" y="338"/>
      <point x="300" y="396"/>
      <point x="300" y="496" type="curve" smooth="yes"/>
      <point x="300" y="591"/>
      <point x="254" y="646"/>
      <point x="171" y="646" type="curve" smooth="yes"/>
    </contour>
    <contour>
      <point x="224" y="611"/>
      <point x="255" y="570"/>
      <point x="255" y="492" type="curve" smooth="yes"/>
      <point x="255" y="413"/>
      <point x="223" y="374"/>
      <point x="167" y="374" type="curve" smooth="yes"/>
      <point x="111" y="374"/>
      <point x="81" y="414"/>
      <point x="81" y="493" type="curve" smooth="yes"/>
      <point x="81" y="571"/>
      <point x="112" y="611"/>
      <point x="169" y="611" type="curve" smooth="yes"/>
    </contour>
    <contour>
      <point x="181" y="296" type="move" name="top"/>
    </contour>
  </outline>
</glyph>
<glyph name="one.tosf" format="1">
  <advance width="475"/>
  <outline>
    <contour>
      <point x="47" y="441" type="line"/>
      <point x="47" y="400" type="line"/>
      <point x="54" y="396" type="line"/>
      <point x="229" y="437" type="line"/>
      <point x="229" y="199" type="line"/>
      <point x="227" y="0" type="line"/>
      <point x="277" y="0" type="line"/>
      <point x="277" y="206" type="line"/>
      <point x="278" y="491" type="line"/>
      <point x="270" y="498" type="line"/>
    </contour>
  </outline>
</glyph>
<glyph name="six.dnom" format="1">
  <advance width="330"/>
  <outline>
    <contour>
      <point x="237" y="379" type="line"/>
      <point x="113" y="331"/>
      <point x="41" y="244"/>
      <point x="41" y="134" type="curve"/>
      <point x="41" y="46"/>
      <point x="86" y="-4"/>
      <point x="164" y="-4" type="curve"/>
      <point x="248" y="-4"/>
      <point x="291" y="44"/>
      <point x="291" y="116" type="curve"/>
      <point x="291" y="179"/>
      <point x="252" y="222"/>
      <point x="184" y="222" type="curve" smooth="yes"/>
      <point x="151" y="222"/>
      <point x="122" y="210"/>
      <point x="96" y="192" type="curve"/>
      <point x="87" y="202" type="line"/>
      <point x="80" y="152" type="line"/>
      <point x="107" y="174"/>
      <point x="139" y="187"/>
      <point x="172" y="187" type="curve" smooth="yes"/>
      <point x="220" y="187"/>
      <point x="248" y="161"/>
      <point x="248" y="112" type="curve"/>
      <point x="248" y="57"/>
      <point x="219" y="27"/>
      <point x="165" y="27" type="curve"/>
      <point x="110" y="27"/>
      <point x="85" y="66"/>
      <point x="85" y="135" type="curve"/>
      <point x="85" y="239"/>
      <point x="142" y="307"/>
      <point x="269" y="353" type="curve"/>
      <point x="269" y="358" type="line"/>
      <point x="241" y="379" type="line"/>
    </contour>
  </outline>
</glyph>
<glyph name="six.tf" format="1">
  <advance width="475"/>
  <outline>
    <contour>
      <point x="355" y="593" type="line"/>
      <point x="165" y="522"/>
      <point x="55" y="383"/>
      <point x="55" y="208" type="curve"/>
      <point x="55" y="71"/>
      <point x="116" y="-7"/>
      <point x="233" y="-7" type="curve"/>
      <point x="353" y="-7"/>
      <point x="420" y="65"/>
      <point x="420" y="177" type="curve"/>
      <point x="420" y="279"/>
      <point x="361" y="342"/>
      <point x="261" y="342" type="curve" smooth="yes"/>
      <point x="206" y="342"/>
      <point x="157" y="323"/>
      <point x="116" y="291" type="curve"/>
      <point x="105" y="302" type="line"/>
      <point x="96" y="236" type="line"/>
      <point x="141" y="277"/>
      <point x="194" y="302"/>
      <point x="249" y="302" type="curve" smooth="yes"/>
      <point x="328" y="302"/>
      <point x="373" y="255"/>
      <point x="373" y="171" type="curve"/>
      <point x="373" y="81"/>
      <point x="323" y="31"/>
      <point x="237" y="31" type="curve"/>
      <point x="147" y="31"/>
      <point x="102" y="94"/>
      <point x="102" y="209" type="curve"/>
      <point x="102" y="376"/>
      <point x="196" y="492"/>
      <point x="397" y="563" type="curve"/>
      <point x="397" y="569" type="line"/>
      <point x="360" y="593" type="line"/>
    </contour>
  </outline>
</glyph>
<glyph name="three.lf" format="1">
  <advance width="424"/>
  <outline>
    <contour>
      <point x="136" y="592"/>
      <point x="89" y="572"/>
      <point x="40" y="528" type="curve"/>
      <point x="48" y="487" type="line"/>
      <point x="55" y="487" type="line"/>
      <point x="98" y="527"/>
      <point x="137" y="548"/>
      <point x="182" y="548" type="curve" smooth="yes"/>
      <point x="240" y="548"/>
      <point x="279" y="513"/>
      <point x="279" y="459" type="curve" smooth="yes"/>
      <point x="279" y="385"/>
      <point x="204" y="332"/>
      <point x="147" y="332" type="curve" smooth="yes"/>
      <point x="104" y="331" type="line"/>
      <point x="102" y="295" type="line"/>
      <point x="106" y="290" type="line"/>
      <point x="160" y="290" type="line"/>
      <point x="255" y="286"/>
      <point x="308" y="243"/>
      <point x="308" y="171" type="curve" smooth="yes"/>
      <point x="308" y="91"/>
      <point x="242" y="38"/>
      <point x="143" y="38" type="curve" smooth="yes"/>
      <point x="113" y="38"/>
      <point x="78" y="43"/>
      <point x="47" y="53" type="curve"/>
      <point x="43" y="49" type="line"/>
      <point x="47" y="5" type="line"/>
      <point x="75" y="-0"/>
      <point x="112" y="-4"/>
      <point x="140" y="-4" type="curve" smooth="yes"/>
      <point x="269" y="-4"/>
      <point x="357" y="69"/>
      <point x="357" y="176" type="curve" smooth="yes"/>
      <point x="357" y="249"/>
      <point x="312" y="298"/>
      <point x="229" y="317" type="curve"/>
      <point x="229" y="320" type="line"/>
      <point x="295" y="353"/>
      <point x="332" y="412"/>
      <point x="332" y="470" type="curve" smooth="yes"/>
      <point x="332" y="543"/>
      <point x="274" y="592"/>
      <point x="190" y="592" type="curve" smooth="yes"/>
    </contour>
  </outline>
</glyph>
<glyph name="three.tf" format="1">
  <advance width="475"/>
  <outline>
    <contour>
      <point x="158" y="592"/>
      <point x="108" y="572"/>
      <point x="56" y="528" type="curve"/>
      <point x="64" y="487" type="line"/>
      <point x="71" y="487" type="line"/>
      <point x="117" y="527"/>
      <point x="159" y="548"/>
      <point x="206" y="548" type="curve" smooth="yes"/>
      <point x="269" y="548"/>
      <point x="312" y="513"/>
      <point x="312" y="459" type="curve" smooth="yes"/>
      <point x="312" y="385"/>
      <point x="231" y="332"/>
      <point x="169" y="332" type="curve" smooth="yes"/>
      <point x="123" y="331" type="line"/>
      <point x="122" y="295" type="line"/>
      <point x="126" y="290" type="line"/>
      <point x="182" y="290" type="line"/>
      <point x="285" y="286"/>
      <point x="342" y="243"/>
      <point x="342" y="171" type="curve" smooth="yes"/>
      <point x="342" y="91"/>
      <point x="271" y="38"/>
      <point x="164" y="38" type="curve" smooth="yes"/>
      <point x="133" y="38"/>
      <point x="96" y="43"/>
      <point x="64" y="53" type="curve"/>
      <point x="59" y="49" type="line"/>
      <point x="63" y="5" type="line"/>
      <point x="93" y="-0"/>
      <point x="132" y="-4"/>
      <point x="162" y="-4" type="curve" smooth="yes"/>
      <point x="299" y="-4"/>
      <point x="392" y="69"/>
      <point x="392" y="176" type="curve" smooth="yes"/>
      <point x="392" y="249"/>
      <point x="342" y="298"/>
      <point x="254" y="317" type="curve"/>
      <point x="254" y="320" type="line"/>
      <point x="325" y="353"/>
      <point x="364" y="412"/>
      <point x="364" y="470" type="curve" smooth="yes"/>
      <point x="364" y="543"/>
      <point x="302" y="592"/>
      <point x="214" y="592" type="curve" smooth="yes"/>
    </contour>
  </outline>
</glyph>
<glyph name="two.tosf" format="1">
  <advance width="475"/>
  <outline>
    <contour>
      <point x="174" y="497"/>
      <point x="116" y="467"/>
      <point x="71" y="420" type="curve"/>
      <point x="80" y="380" type="line"/>
      <point x="87" y="380" type="line"/>
      <point x="126" y="425"/>
      <point x="176" y="452"/>
      <point x="227" y="452" type="curve" smooth="yes"/>
      <point x="283" y="452"/>
      <point x="313" y="420"/>
      <point x="313" y="381" type="curve" smooth="yes"/>
      <point x="313" y="335"/>
      <point x="275" y="278"/>
      <point x="203" y="196" type="curve" smooth="yes"/>
      <point x="62" y="35" type="line"/>
      <point x="62" y="1" type="line"/>
      <point x="65" y="-1" type="line"/>
      <point x="103" y="0" type="line"/>
      <point x="329" y="0" type="line"/>
      <point x="423" y="-2" type="line"/>
      <point x="430" y="41" type="line"/>
      <point x="425" y="46" type="line"/>
      <point x="343" y="42" type="line"/>
      <point x="132" y="42" type="line"/>
      <point x="130" y="46" type="line"/>
      <point x="244" y="178" type="line" smooth="yes"/>
      <point x="324" y="271"/>
      <point x="364" y="337"/>
      <point x="364" y="392" type="curve" smooth="yes"/>
      <point x="364" y="454"/>
      <point x="311" y="497"/>
      <point x="236" y="497" type="curve" smooth="yes"/>
    </contour>
  </outline>
</glyph>
<glyph name="zero.tosf" format="1">
  <advance width="475"/>
  <outline>
    <contour>
      <point x="111" y="500"/>
      <point x="38" y="407"/>
      <point x="38" y="241" type="curve" smooth="yes"/>
      <point x="38" y="83"/>
      <point x="109" y="-5"/>
      <point x="235" y="-5" type="curve" smooth="yes"/>
      <point x="365" y="-5"/>
      <point x="438" y="85"/>
      <point x="438" y="248" type="curve" smooth="yes"/>
      <point x="438" y="410"/>
      <point x="367" y="500"/>
      <point x="242" y="500" type="curve" smooth="yes"/>
    </contour>
    <contour>
      <point x="339" y="452"/>
      <point x="395" y="379"/>
      <point x="395" y="242" type="curve" smooth="yes"/>
      <point x="395" y="111"/>
      <point x="340" y="41"/>
      <point x="239" y="41" type="curve" smooth="yes"/>
      <point x="135" y="41"/>
      <point x="80" y="112"/>
      <point x="80" y="245" type="curve" smooth="yes"/>
      <point x="80" y="380"/>
      <point x="135" y="452"/>
      <point x="237" y="452" type="curve" smooth="yes"/>
    </contour>
  </outline>
</glyph>
